<svg width="15" height="15" viewBox="0 0 15 15" fill="none" xmlns="http://www.w3.org/2000/svg">
<path d="M13.0856 4.70625C12.0169 2.57438 9.87687 1.25 7.5 1.25C4.05375 1.25 1.25 4.05375 1.25 7.5C1.25 10.9462 4.05375 13.75 7.5 13.75C9.87687 13.75 12.0169 12.4256 13.0856 10.2937C13.1572 10.1509 13.1714 9.98608 13.1253 9.83311C13.0791 9.68014 12.9762 9.55065 12.8375 9.47125L9.38562 7.5L12.8369 5.52938C13.125 5.36438 13.2344 5.00313 13.0856 4.70625ZM7.815 6.9575C7.71925 7.01206 7.63964 7.09099 7.58426 7.18627C7.52889 7.28155 7.49972 7.38979 7.49972 7.5C7.49972 7.61021 7.52889 7.71845 7.58426 7.81373C7.63964 7.90901 7.71925 7.98794 7.815 8.0425L11.6731 10.2456C11.2206 10.9395 10.6018 11.5092 9.87297 11.903C9.14412 12.2967 8.32839 12.5019 7.5 12.5C4.74313 12.5 2.5 10.2569 2.5 7.5C2.5 4.74313 4.74313 2.5 7.5 2.5C8.32832 2.49805 9.144 2.70321 9.87283 3.09682C10.6017 3.49044 11.2205 4.06001 11.6731 4.75375L7.815 6.9575Z" fill="white"/>
<path d="M7.1875 5.625C7.70527 5.625 8.125 5.20527 8.125 4.6875C8.125 4.16973 7.70527 3.75 7.1875 3.75C6.66973 3.75 6.25 4.16973 6.25 4.6875C6.25 5.20527 6.66973 5.625 7.1875 5.625Z" fill="white"/>
</svg>
