<svg width="13" height="13" viewBox="0 0 13 13" fill="none" xmlns="http://www.w3.org/2000/svg">
<path d="M6.25 0.5C5.59073 0.5 4.94626 0.685207 4.3981 1.0322C3.84994 1.3792 3.42269 1.87239 3.1704 2.44942C2.91811 3.02645 2.8521 3.6614 2.98072 4.27397C3.10933 4.88654 3.4268 5.44922 3.89298 5.89086C4.35915 6.3325 4.9531 6.63326 5.5997 6.75511C6.2463 6.87696 6.91652 6.81442 7.52561 6.57541C8.1347 6.3364 8.65529 5.93164 9.02157 5.41233C9.38784 4.89301 9.58333 4.28247 9.58333 3.65789C9.58333 2.82037 9.23214 2.01715 8.60702 1.42493C7.9819 0.832706 7.13405 0.5 6.25 0.5V0.5ZM6.25 5.55263C5.85444 5.55263 5.46776 5.44151 5.13886 5.23331C4.80996 5.02511 4.55362 4.7292 4.40224 4.38298C4.25087 4.03676 4.21126 3.65579 4.28843 3.28825C4.3656 2.92071 4.55608 2.5831 4.83579 2.31811C5.11549 2.05313 5.47186 1.87267 5.85982 1.79956C6.24778 1.72646 6.64991 1.76398 7.01537 1.90739C7.38082 2.05079 7.69318 2.29365 7.91294 2.60524C8.1327 2.91682 8.25 3.28315 8.25 3.65789C8.25 4.16041 8.03929 4.64234 7.66421 4.99768C7.28914 5.35301 6.78043 5.55263 6.25 5.55263V5.55263ZM12.25 12.5V11.8684C12.25 10.6959 11.7583 9.57137 10.8832 8.74226C10.008 7.91316 8.82101 7.44737 7.58333 7.44737H4.91667C3.67899 7.44737 2.492 7.91316 1.61683 8.74226C0.741665 9.57137 0.25 10.6959 0.25 11.8684V12.5H1.58333V11.8684C1.58333 11.0309 1.93452 10.2277 2.55964 9.63545C3.18477 9.04323 4.03261 8.71053 4.91667 8.71053H7.58333C8.46739 8.71053 9.31523 9.04323 9.94036 9.63545C10.5655 10.2277 10.9167 11.0309 10.9167 11.8684V12.5H12.25Z" fill="white"/>
</svg>
