<svg width="81" height="61" viewBox="0 0 81 61" fill="none" xmlns="http://www.w3.org/2000/svg">
<g clip-path="url(#clip0_57_8)">
<path fill-rule="evenodd" clip-rule="evenodd" d="M0.0300064 0.409546H114.03V5.0268H0.0300064V0.409546ZM0.0300064 9.64392H114.03V14.2612H0.0300064V9.64392ZM0.0300064 18.8665H114.03V23.4954H0.0300064V18.8665ZM0.0300064 28.1009H114.03V32.7182H0.0300064V28.1009ZM0.0300064 37.3353H114.03V41.9525H0.0300064V37.3353ZM0.0300064 46.5579H114.03V51.1752H0.0300064V46.5579ZM0.0300064 55.7923H114.03V60.4095H0.0300064V55.7923Z" fill="#BD3D44"/>
<path fill-rule="evenodd" clip-rule="evenodd" d="M0.0300064 5.02679H114.03V9.64392H0.0300064V5.02679ZM0.0300064 14.261H114.03V18.8665H0.0300064V14.261ZM0.0300064 23.4838H114.03V28.1009H0.0300064V23.4838ZM0.0300064 32.7182H114.03V37.3353H0.0300064V32.7182ZM0.0300064 41.9525H114.03V46.5697H0.0300064V41.9525ZM0.0300064 51.1752H114.03V55.7924H0.0300064V51.1752Z" fill="white"/>
<path fill-rule="evenodd" clip-rule="evenodd" d="M0.0300064 0.409546H45.6276V32.7182H0.0300064V0.409546Z" fill="#192F5D"/>
<path fill-rule="evenodd" clip-rule="evenodd" d="M3.82688 1.79242L4.24875 3.06954H5.58475L4.50651 3.85479L4.91676 5.14379L3.82688 4.34692L2.74875 5.13204L3.15888 3.85479L2.06913 3.06954H3.4285L3.82688 1.79242ZM11.4324 1.79242L11.8425 3.06954H13.1901L12.1003 3.85479L12.5105 5.14379L11.4324 4.34692L10.3425 5.13204L10.7526 3.85479L9.6745 3.06954H11.0105L11.4324 1.79242ZM19.0261 1.79242L19.448 3.06967H20.7723L19.6941 3.85492L20.1041 5.14392L19.0144 4.34704L17.9363 5.13217L18.3464 3.85492L17.2565 3.06967H18.6043L19.0261 1.79242ZM26.6316 1.79242L27.0416 3.06967H28.3894L27.2995 3.85492L27.7214 5.14392L26.6315 4.34704L25.5418 5.13217L25.9636 3.85492L24.8738 3.06967H26.2098L26.6316 1.79242ZM34.2254 1.79242L34.6473 3.06967H35.9831L34.905 3.85492L35.3151 5.14392L34.2253 4.34704L33.1471 5.13217L33.5574 3.85492L32.4793 3.06967H33.8151L34.2254 1.79242ZM41.8308 1.79242L42.2409 3.06967H43.5886L42.4988 3.85492L42.9206 5.14392L41.8308 4.34704L40.7409 5.13217L41.1628 3.85492L40.073 3.06967H41.4206L41.8308 1.79242ZM7.63551 5.02654L8.04563 6.30404H9.39325L8.30338 7.08904L8.70188 8.36654L7.64713 7.58129L6.55738 8.36642L6.94401 7.08917L5.88938 6.30392H7.22538L7.63551 5.02654ZM15.2293 5.02654L15.6511 6.30404H16.987L15.8971 7.08904L16.3191 8.36654L15.2291 7.58129L14.1394 8.36642L14.5613 7.08917L13.4714 6.30392H14.819L15.2293 5.02654ZM22.8348 5.02654L23.2448 6.30404H24.5925L23.5026 7.08904L23.9128 8.36654L22.8346 7.58129L21.7449 8.36642L22.155 7.08929L21.0769 6.30404H22.4129L22.8348 5.02654ZM30.4285 5.02654L30.8504 6.30404H32.1863L31.0964 7.08904L31.5183 8.36654L30.4284 7.58129L29.3503 8.36642L29.7605 7.08917L28.6706 6.30392H30.03L30.4285 5.02654ZM38.0339 5.02654L38.444 6.30404H39.7918L38.7019 7.08904L39.112 8.36654L38.0339 7.58129L36.944 8.36642L37.3543 7.08917L36.2761 6.30392H37.612L38.0339 5.02654ZM3.82688 8.24954L4.24875 9.55029H5.58475L4.50651 10.3354L4.91676 11.6128L3.82688 10.8159L2.74875 11.6128L3.15888 10.3237L2.06913 9.53867H3.4285L3.82688 8.24954ZM11.4324 8.24954L11.8425 9.53829H13.1901L12.1003 10.3234L12.5105 11.6009L11.4324 10.8039L10.3425 11.6008L10.7526 10.3118L9.6745 9.52667H11.0105L11.4324 8.24954ZM19.0261 8.24954L19.448 9.53854H20.7723L19.6941 10.3237L20.1041 11.6012L19.0144 10.8042L17.9363 11.601L18.3464 10.312L17.2565 9.52692H18.6043L19.0261 8.24954ZM26.6316 8.24954L27.0416 9.53854H28.3894L27.2995 10.3237L27.7214 11.6012L26.6315 10.8042L25.5418 11.601L25.9636 10.312L24.8738 9.52692H26.2098L26.6316 8.24954ZM34.2254 8.24954L34.6473 9.53854H35.9831L34.905 10.3235L35.3151 11.601L34.2253 10.804L33.1471 11.6009L33.5574 10.3119L32.4793 9.52679H33.8151L34.2254 8.24954ZM41.8308 8.24954L42.2409 9.53854H43.5886L42.4988 10.3237L42.9206 11.6012L41.8308 10.8042L40.7409 11.601L41.1628 10.312L40.073 9.52692H41.4206L41.8308 8.24954ZM7.63551 11.4838L8.04563 12.7612H9.39325L8.30338 13.5462L8.71363 14.8353L7.63551 14.0384L6.54563 14.8235L6.95575 13.5463L5.87763 12.7612H7.21376L7.63551 11.4838ZM15.2293 11.4838L15.6511 12.7612H16.987L15.8971 13.5462L16.3191 14.8353L15.2291 14.0384L14.1394 14.8235L14.5613 13.5463L13.4714 12.7612H14.819L15.2293 11.4838ZM22.8348 11.4838L23.2448 12.7612H24.5925L23.5026 13.5462L23.9128 14.8353L22.8346 14.0384L21.7449 14.8235L22.155 13.5463L21.0769 12.7612H22.4129L22.8348 11.4838ZM30.4285 11.4838L30.8504 12.7612H32.1863L31.1081 13.5462L31.5183 14.8353L30.4284 14.0384L29.3503 14.8235L29.7605 13.5463L28.6706 12.7612H30.03L30.4285 11.4838ZM38.0339 11.4838L38.444 12.7612H39.7918L38.7019 13.5462L39.112 14.8353L38.0339 14.0384L36.944 14.8235L37.3543 13.5463L36.2761 12.7612H37.612L38.0339 11.4838ZM3.82688 14.7182L4.24875 15.9955H5.58475L4.50651 16.7805L4.91676 18.0697L3.82688 17.2728L2.74875 18.0579L3.15888 16.7807L2.06913 15.9955H3.4285L3.82688 14.7182ZM11.4324 14.7182L11.8425 15.9955H13.1901L12.1003 16.7805L12.5105 18.058L11.4324 17.2728L10.3425 18.0579L10.7526 16.7807L9.6745 15.9955H11.0105L11.4324 14.7182ZM19.0261 14.7182L19.448 15.9955H20.7723L19.6941 16.7805L20.1041 18.0697L19.0144 17.2728L17.9363 18.0579L18.3464 16.7807L17.2565 15.9955H18.6043L19.0261 14.7182ZM26.6316 14.7182L27.0416 15.9955H28.3894L27.2995 16.7805L27.7214 18.0697L26.6315 17.2728L25.5418 18.0579L25.9636 16.7807L24.8738 15.9955H26.2098L26.6316 14.7182ZM34.2254 14.7182L34.6473 15.9955H35.9831L34.905 16.7805L35.3151 18.0697L34.2253 17.2728L33.1471 18.0579L33.5574 16.7807L32.4793 15.9955H33.8151L34.2254 14.7182ZM41.8308 14.7182L42.2409 15.9955H43.5886L42.4988 16.7805L42.9206 18.0697L41.8308 17.2728L40.7409 18.0579L41.1628 16.7807L40.073 15.9955H41.4206L41.8308 14.7182ZM7.63551 17.9525L8.04563 19.2299H9.39325L8.30338 20.0149L8.71363 21.2924L7.63551 20.4955L6.54563 21.2924L6.95575 20.0033L5.87763 19.2182H7.21376L7.63551 17.9525ZM15.2293 17.9525L15.6511 19.2299H16.987L15.8971 20.0149L16.3191 21.2924L15.2291 20.4955L14.1394 21.2924L14.5613 20.0033L13.4714 19.2182H14.819L15.2293 17.9525ZM22.8348 17.9525L23.2448 19.2299H24.5925L23.5026 20.0149L23.9128 21.2924L22.8346 20.4955L21.7449 21.2924L22.155 20.0033L21.0769 19.2182H22.4129L22.8348 17.9525ZM30.4285 17.9525L30.8504 19.2299H32.1863L31.1081 20.0149L31.5183 21.2924L30.4284 20.4955L29.3503 21.2924L29.7605 20.0033L28.6706 19.2182H30.03L30.4285 17.9525ZM38.0339 17.9525L38.444 19.2299H39.7918L38.7019 20.0149L39.112 21.2924L38.0339 20.4955L36.944 21.2924L37.3543 20.0033L36.2761 19.2182H37.612L38.0339 17.9525ZM3.82688 21.1752L4.24875 22.4643H5.58475L4.50651 23.2493L4.91676 24.515L3.82688 23.7299L2.74875 24.5149L3.15888 23.2377L2.06913 22.4525H3.4285L3.82688 21.1752ZM11.4324 21.1752L11.8425 22.4643H13.1901L12.1003 23.2493L12.5223 24.515L11.4323 23.7299L10.3425 24.5149L10.7644 23.2377L9.6745 22.4525H11.0105L11.4324 21.1752ZM19.0261 21.1752L19.448 22.4643H20.7723L19.6941 23.2493L20.1041 24.515L19.0144 23.7299L17.9363 24.5149L18.3464 23.2377L17.2565 22.4525H18.6043L19.0261 21.1752ZM26.6316 21.1752L27.0416 22.4643H28.3894L27.2995 23.2493L27.7214 24.515L26.6315 23.7299L25.5418 24.5149L25.9636 23.2377L24.8738 22.4525H26.2098L26.6316 21.1752ZM34.2254 21.1752L34.6473 22.4643H35.9831L34.905 23.2493L35.3151 24.515L34.2253 23.7299L33.1471 24.5149L33.5574 23.2377L32.4793 22.4525H33.8151L34.2254 21.1752ZM41.8308 21.1752L42.2409 22.4643H43.5886L42.4988 23.2493L42.9206 24.515L41.8308 23.7299L40.7409 24.5149L41.1628 23.2377L40.073 22.4525H41.4206L41.8308 21.1752ZM7.63551 24.4095L8.04563 25.6869H9.39325L8.30338 26.472L8.71363 27.7612L7.63551 26.9643L6.54563 27.7493L6.95575 26.472L5.87763 25.6869H7.21376L7.63551 24.4095ZM15.2293 24.4095L15.6511 25.6869H16.987L15.8971 26.472L16.3191 27.7612L15.2291 26.9643L14.1394 27.7493L14.5613 26.472L13.4714 25.6869H14.819L15.2293 24.4095ZM22.8348 24.4095L23.2448 25.6869H24.5925L23.5026 26.472L23.9128 27.7612L22.8346 26.9643L21.7449 27.7493L22.155 26.472L21.0769 25.6869H22.4129L22.8348 24.4095ZM30.4285 24.4095L30.8504 25.6869H32.1863L31.1081 26.472L31.5183 27.7612L30.4284 26.9643L29.3503 27.7493L29.7605 26.472L28.6706 25.6869H30.03L30.4285 24.4095ZM38.0339 24.4095L38.444 25.6869H39.7918L38.7019 26.472L39.112 27.7612L38.0339 26.9643L36.944 27.7493L37.3543 26.472L36.2761 25.6869H37.612L38.0339 24.4095ZM3.82688 27.6439L4.24875 28.9213H5.58475L4.50651 29.7064L4.91676 30.9838L3.82688 30.1987L2.74875 30.9837L3.15888 29.6947L2.06913 28.9095H3.4285L3.82688 27.6439ZM11.4324 27.6439L11.8425 28.9213H13.1901L12.1003 29.7064L12.5223 30.9838L11.4323 30.1987L10.3425 30.9837L10.7644 29.6947L9.6745 28.9095H11.0105L11.4324 27.6439ZM19.0261 27.6439L19.448 28.9213H20.7723L19.7175 29.7064L20.1276 30.9838L19.0378 30.1987L17.9596 30.9837L18.3699 29.6947L17.28 28.9095H18.6276L19.0261 27.6439ZM26.6316 27.6439L27.0416 28.9213H28.3894L27.2995 29.7064L27.7214 30.9838L26.6315 30.1987L25.5418 30.9837L25.9636 29.6947L24.8738 28.9095H26.2098L26.6316 27.6439ZM34.2254 27.6439L34.6473 28.9213H35.9831L34.905 29.7064L35.3151 30.9838L34.2253 30.1987L33.1471 30.9837L33.5574 29.6947L32.4793 28.9095H33.8151L34.2254 27.6439ZM41.8308 27.6439L42.2409 28.9213H43.5886L42.4988 29.7064L42.9206 30.9838L41.8308 30.1987L40.7409 30.9837L41.1628 29.6947L40.073 28.9095H41.4206L41.8308 27.6439Z" fill="white"/>
</g>
<defs>
<clipPath id="clip0_57_8">
<rect width="80" height="60" fill="white" transform="translate(0.0300064 0.409546)"/>
</clipPath>
</defs>
</svg>
