<svg width="12" height="12" viewBox="0 0 12 12" fill="none" xmlns="http://www.w3.org/2000/svg">
<g clip-path="url(#clip0_16_166)">
<mask id="mask0_16_166" style="mask-type:alpha" maskUnits="userSpaceOnUse" x="0" y="0" width="12" height="12">
<path d="M6 12C9.31371 12 12 9.31371 12 6C12 2.68629 9.31371 0 6 0C2.68629 0 0 2.68629 0 6C0 9.31371 2.68629 12 6 12Z" fill="white"/>
</mask>
<g mask="url(#mask0_16_166)">
<path d="M6 12C9.31371 12 12 9.31371 12 6C12 2.68629 9.31371 0 6 0C2.68629 0 0 2.68629 0 6C0 9.31371 2.68629 12 6 12Z" fill="black"/>
<path d="M12 1.8L5.8104 5.11308L9.036 1.8H7.248L5.052 4.84812V1.8H3.6V10.2H5.052V7.1568L7.248 10.2H9.036L5.89416 6.99108L12 10.2V8.64L6.43104 6.40584L12 6.78V5.22L6.46632 5.57976L12 3.36V1.8Z" fill="url(#paint0_radial_16_166)"/>
</g>
</g>
<defs>
<radialGradient id="paint0_radial_16_166" cx="0" cy="0" r="1" gradientUnits="userSpaceOnUse" gradientTransform="translate(3.6 1.8) rotate(45) scale(11.8794)">
<stop offset="0.5" stop-color="#FF5500"/>
<stop offset="1" stop-color="#BBFF00"/>
</radialGradient>
<clipPath id="clip0_16_166">
<rect width="12" height="12" fill="white"/>
</clipPath>
</defs>
</svg>
