<svg width="13" height="13" viewBox="0 0 13 13" fill="none" xmlns="http://www.w3.org/2000/svg">
<path d="M6.2622 0.261871C2.96207 0.261871 0.261902 2.96204 0.261902 6.26217C0.261902 9.56171 2.96207 12.2619 6.2622 12.2619C9.56174 12.2619 12.2619 9.56171 12.2619 6.26217C12.2619 2.96204 9.59177 0.261871 6.2622 0.261871ZM9.02182 8.93171C8.90231 9.11128 8.69211 9.17194 8.51134 9.05242C7.1006 8.1816 5.33072 8.00142 3.23052 8.48128C3.02152 8.54254 2.84135 8.3924 2.7813 8.21162C2.72064 8.00142 2.87078 7.82245 3.05155 7.7618C5.33072 7.25131 7.3114 7.46211 8.87108 8.42242C9.08128 8.51191 9.11131 8.75154 9.02182 8.93171ZM9.74251 7.28194C9.59177 7.49154 9.32211 7.58162 9.11131 7.43148C7.49157 6.44294 5.03223 6.14146 3.14224 6.74203C2.90321 6.80269 2.63175 6.68197 2.5723 6.44294C2.51164 6.20151 2.63235 5.93126 2.87198 5.8712C5.06166 5.21177 7.76243 5.54209 9.62179 6.68257C9.80196 6.77206 9.89205 7.07174 9.74251 7.28194ZM9.80196 5.60094C7.88194 4.46166 4.67189 4.34155 2.84135 4.91269C2.70214 4.9528 2.55283 4.93774 2.42444 4.87064C2.29604 4.80353 2.19844 4.68954 2.1519 4.55235C2.11107 4.41297 2.12571 4.26321 2.19276 4.13438C2.2598 4.00554 2.37406 3.90762 2.51164 3.86109C4.64186 3.23109 8.1522 3.35061 10.3725 4.67246C10.6422 4.822 10.7322 5.18235 10.5821 5.452C10.432 5.6622 10.0722 5.75109 9.80196 5.60094Z" fill="white"/>
</svg>
