<svg width="12" height="12" viewBox="0 0 12 12" fill="none" xmlns="http://www.w3.org/2000/svg">
<g clip-path="url(#clip0_16_176)">
<path fill-rule="evenodd" clip-rule="evenodd" d="M0.0418854 3.03354C0.0418854 1.9717 0.0418854 1.44079 0.247391 1.03521C0.42816 0.678467 0.716601 0.38842 1.07138 0.206648C1.47471 0 2.0027 0 3.05867 0H8.95883C10.0148 0 10.5428 0 10.9461 0.206648C11.3009 0.38842 11.5893 0.678467 11.7701 1.03521C11.9756 1.44079 11.9756 1.97171 11.9756 3.03354V8.96647C11.9756 10.0283 11.9756 10.5592 11.7701 10.9648C11.5893 11.3215 11.3009 11.6116 10.9461 11.7933C10.5428 12 10.0148 12 8.95883 12H3.05867C2.0027 12 1.47471 12 1.07138 11.7933C0.716601 11.6116 0.42816 11.3215 0.247391 10.9648C0.0418854 10.5592 0.0418854 10.0283 0.0418854 8.96647V3.03354Z" fill="#3E4757"/>
<mask id="mask0_16_176" style="mask-type:alpha" maskUnits="userSpaceOnUse" x="0" y="0" width="12" height="12">
<path fill-rule="evenodd" clip-rule="evenodd" d="M0.0418854 3.03354C0.0418854 1.9717 0.0418854 1.44079 0.247391 1.03521C0.42816 0.678467 0.716601 0.38842 1.07138 0.206648C1.47471 0 2.0027 0 3.05867 0H8.95883C10.0148 0 10.5428 0 10.9461 0.206648C11.3009 0.38842 11.5893 0.678467 11.7701 1.03521C11.9756 1.44079 11.9756 1.97171 11.9756 3.03354V8.96647C11.9756 10.0283 11.9756 10.5592 11.7701 10.9648C11.5893 11.3215 11.3009 11.6116 10.9461 11.7933C10.5428 12 10.0148 12 8.95883 12H3.05867C2.0027 12 1.47471 12 1.07138 11.7933C0.716601 11.6116 0.42816 11.3215 0.247391 10.9648C0.0418854 10.5592 0.0418854 10.0283 0.0418854 8.96647V3.03354Z" fill="white"/>
</mask>
<g mask="url(#mask0_16_176)">
<path fill-rule="evenodd" clip-rule="evenodd" d="M10.5863 5.31095L10.1899 5.32361C10.1562 5.32361 9.9128 5.31659 9.67644 5.14425C9.69414 5.14588 9.71171 5.14851 9.72981 5.14851C9.97286 5.14851 10.2084 5.00137 10.3027 4.79055L10.4732 4.41001C10.2592 4.41289 10.0638 4.3857 10.0638 4.3857C10.0621 4.38557 9.90789 4.36552 9.72968 4.18239C9.60192 4.05117 9.4436 3.9816 9.27235 3.9816C9.1973 3.9816 9.13034 3.99527 9.07253 4.01369C9.08161 3.98285 9.08997 3.95152 9.09494 3.91931C9.14957 3.56309 8.92183 3.29161 8.9217 3.29186L8.62329 2.92035L8.43845 3.35679C8.43786 3.35804 8.39098 3.46044 8.30758 3.5102C8.28252 3.38198 8.22046 3.23771 8.08807 3.10009C7.83852 2.84039 7.53487 2.80153 7.37596 2.80153C7.30243 2.80153 7.24979 2.80955 7.23699 2.81168L6.87699 2.88275C6.89781 2.80203 6.94217 2.66102 7.02298 2.53418L7.22161 2.22309L6.72166 2.28024L6.56251 1.94019L6.25414 2.1L5.96907 1.81699L5.68475 2.1L5.37574 1.94019L5.21682 2.28024L4.71698 2.22296L4.91604 2.53431C4.99694 2.66102 5.04107 2.80165 5.06163 2.88237L4.7181 2.81431L4.70626 2.81231C4.68919 2.80955 4.63696 2.80153 4.56292 2.80153C4.40412 2.80153 4.10035 2.84039 3.85143 3.09996C3.71893 3.23759 3.65673 3.38198 3.63143 3.5102C3.54854 3.46081 3.50204 3.36017 3.50204 3.36017L3.31682 2.92123L3.01393 3.29499C2.97678 3.34312 2.79442 3.59844 2.84391 3.91969C2.84902 3.95177 2.85737 3.98285 2.86635 4.01369C2.80888 3.99501 2.74182 3.9816 2.66691 3.9816C2.49552 3.9816 2.33734 4.05117 2.20921 4.18239C2.03146 4.36477 1.91051 4.37759 1.87964 4.38532C1.84876 4.39305 1.71747 4.41465 1.46656 4.41001L1.63633 4.79055C1.73056 5.00137 1.96627 5.14851 2.20896 5.14851C2.22728 5.14851 2.24473 5.14588 2.26268 5.14425C2.02685 5.31659 1.78341 5.32361 1.754 5.32374L1.35027 5.31095L1.47254 5.69675C1.53412 5.89554 1.73991 6.22481 2.13367 6.26028C2.09079 6.44077 1.99581 6.64319 1.78715 6.73039L1.48638 6.85499L1.65041 7.14226C1.7429 7.29719 1.96054 7.47846 2.27004 7.47846C2.33684 7.47819 2.40141 7.47146 2.46373 7.45813C2.47969 7.52899 2.49951 7.59993 2.52307 7.67033C2.61518 7.94619 2.53578 8.13846 2.53491 8.14059L2.38633 8.45346L2.71789 8.54133C2.722 8.54259 2.82222 8.57026 2.94762 8.57026C3.00446 8.57026 3.05905 8.56439 3.10978 8.55213C3.1483 8.54306 3.18544 8.53106 3.22097 8.51653C3.26397 8.59386 3.31607 8.66453 3.37677 8.72786C3.5893 8.94706 3.89045 9.05813 4.27174 9.05813H4.27299L4.54522 9.05459L3.98281 9.28986L4.40985 9.49739C4.56516 9.57339 4.74889 9.66326 4.93636 9.73206L4.88289 9.87886L5.03022 9.94626C5.04331 9.95226 5.32638 10.0795 5.7968 10.1067C5.7968 10.1067 5.91048 10.112 5.97306 10.112C6.0355 10.112 6.14769 10.1063 6.14769 10.1063C6.61524 10.0785 6.89609 9.95226 6.90915 9.94626L7.05673 9.87859L7.0029 9.73166C7.19549 9.66086 7.3863 9.56739 7.53514 9.49426L7.95408 9.28959L7.39353 9.05459L7.66687 9.05813C8.04882 9.05813 8.34995 8.94693 8.5621 8.72746C8.62256 8.66466 8.67454 8.59426 8.71777 8.51653C8.75344 8.53106 8.79083 8.54306 8.82948 8.55239C8.8802 8.56439 8.93456 8.57026 8.99138 8.57026C9.11463 8.57026 9.21587 8.54299 9.21859 8.54206L9.55154 8.45346L9.40648 8.14639C9.40309 8.13846 9.32367 7.94619 9.41596 7.67013C9.43923 7.59966 9.45892 7.52873 9.47503 7.45813C9.53761 7.47146 9.60292 7.47819 9.67034 7.47846C10.0646 7.47846 10.2536 7.19973 10.2901 7.13906L10.4526 6.85479L10.1519 6.73066C9.9427 6.64319 9.84796 6.44089 9.80559 6.26053C10.1942 6.22643 10.4027 5.89692 10.4665 5.69687L10.5863 5.31095Z" fill="#FEFEFE"/>
<path fill-rule="evenodd" clip-rule="evenodd" d="M6.62597 2.75682C6.44461 2.6553 6.2094 2.59751 5.96908 2.59751C5.73001 2.59751 5.4948 2.6553 5.31294 2.75682C5.29636 2.70104 5.2733 2.63324 5.24189 2.56229L5.3102 2.57044L5.382 2.57808L5.41291 2.51216L5.5034 2.31776L5.67118 2.40512L5.73624 2.43833L5.78797 2.38694L5.96908 2.20633L6.15057 2.38694L6.20255 2.43833L6.26762 2.40512L6.43452 2.31776L6.52626 2.51216L6.55654 2.57808L6.62847 2.57044L6.69699 2.56229C6.66563 2.63324 6.6423 2.70104 6.62597 2.75682ZM5.96908 2.99838C5.65049 2.99875 5.41167 3.10366 5.35969 3.22712L5.96908 3.46915L6.57861 3.22712C6.52713 3.10366 6.28818 2.99875 5.96908 2.99838ZM5.97554 9.4H5.97492H5.96968H5.9637H5.9632C5.77037 9.40126 5.50425 9.3614 5.37636 9.32393L5.2223 9.74306C5.32376 9.7794 5.66803 9.8492 5.96968 9.8492C6.27071 9.8492 6.61511 9.7794 6.71642 9.74306L6.56262 9.32393C6.43424 9.3614 6.16849 9.40126 5.97554 9.4ZM6.6219 9.19166C6.77072 9.1462 7.02689 9.04813 7.14152 8.98286L7.06501 9.2348L7.3245 9.32153C7.16758 9.40073 6.97737 9.47466 6.74691 9.538L6.6219 9.19166ZM4.79725 8.98286L4.87403 9.2348L4.61426 9.32153C4.77106 9.40073 4.96202 9.47466 5.19163 9.538L5.3169 9.19166C5.16832 9.1462 4.91192 9.04813 4.79725 8.98286ZM9.63547 4.84616C9.66676 4.85706 9.69845 4.86182 9.72981 4.86182C9.86585 4.86182 9.99693 4.77346 10.0422 4.67244C10.0422 4.67244 9.79312 4.65727 9.52515 4.3839C9.44002 4.29529 9.34965 4.26884 9.27228 4.26884C9.15195 4.26884 9.06172 4.33252 9.06172 4.33252C9.23642 4.42603 9.336 4.55005 9.41967 4.65422C9.491 4.74301 9.55074 4.81738 9.63547 4.84616ZM2.30247 4.84616C2.27205 4.85706 2.24026 4.86182 2.20885 4.86182C2.07299 4.86182 1.94148 4.77346 1.89674 4.67256C1.89674 4.67256 2.14566 4.65727 2.41328 4.3839C2.49891 4.29516 2.58903 4.26884 2.66693 4.26884C2.78647 4.26884 2.87696 4.33264 2.87696 4.33264C2.70278 4.42596 2.60309 4.54973 2.51926 4.6538C2.44761 4.74276 2.38755 4.81733 2.30247 4.84616ZM9.53794 6.84146C9.28753 6.71733 9.12961 6.38796 9.09136 6.26939C9.04972 6.9224 8.73275 7.37573 8.36207 7.8122C8.16961 8.03846 8.10252 8.2584 8.10252 8.2584C8.10252 8.2584 8.13971 8.00913 8.30599 7.80633C8.65186 7.38853 8.98057 6.8684 9.00497 6.26688C9.02168 5.84712 8.91447 5.50682 8.74694 5.22619C8.84068 5.51836 8.82736 5.87607 8.50926 6.2101C8.50926 6.2101 9.14274 5.44691 8.25726 4.66442C8.00565 4.45298 7.73708 4.29898 7.53109 4.18084C7.44689 4.13256 7.37317 4.09028 7.31529 4.0525C8.03648 4.28915 8.38873 4.02869 8.38873 4.02869C8.15847 4.22936 7.8602 4.22598 7.67536 4.19702C7.72561 4.22159 7.77772 4.24728 7.83381 4.27762C8.44196 4.60976 8.98853 5.15637 9.08174 5.9133V5.90753C9.22322 6.6508 9.53794 6.84146 9.53794 6.84146ZM9.72305 5.97547C9.72882 5.97584 9.73352 5.97584 9.73929 5.97584C10.0783 5.97584 10.1931 5.61073 10.1931 5.61073H10.1865C10.1243 5.61073 9.62022 5.59594 9.264 5.1407C9.25405 5.12797 9.24417 5.1153 9.23429 5.10271C9.01286 4.81904 8.82106 4.5734 8.45768 4.47428L8.42028 4.46776L8.41226 4.4294C8.40172 4.37124 8.44157 4.31647 8.53167 4.25756C9.05562 3.91263 8.69973 3.47256 8.69973 3.47256C8.69973 3.47256 8.55016 3.82452 8.21549 3.82452C8.21144 3.82452 8.20733 3.82439 8.20322 3.82426C8.19905 3.82414 8.19487 3.82401 8.19069 3.82401L8.18327 3.82362C8.14786 3.82178 8.11346 3.82 8.07898 3.81273L8.01739 3.80058C8.01739 3.80058 8.11273 3.53949 7.88241 3.29997C7.7089 3.1191 7.49788 3.0884 7.37595 3.0884C7.31463 3.0884 7.27564 3.09629 7.27564 3.09629C7.39127 3.24833 7.47494 3.50076 7.34141 3.65656C7.29673 3.70832 7.22705 3.74102 7.15843 3.77322C7.04983 3.82424 6.94382 3.87399 6.94382 3.99623C6.94382 4.08083 7.02245 4.17935 7.16333 4.26784C7.58725 4.53619 8.00804 4.89253 8.1832 5.36982C8.40172 5.96519 8.15536 6.36038 7.80391 6.58712C7.80391 6.58712 7.91416 6.68913 8.07401 6.7022C8.10649 6.70533 8.13832 6.70693 8.16795 6.70693C8.50554 6.70693 8.68017 6.54764 8.68017 6.54764C8.68017 6.54764 8.65133 6.7676 8.47571 6.9718C8.31354 7.16033 8.10092 7.27146 7.77633 7.276C7.77633 7.276 7.76612 7.42753 7.90972 7.55866C8.00181 7.64133 8.2141 7.6682 8.2141 7.6682C8.2141 7.6682 7.81644 7.74926 7.77262 8.33973C7.74881 8.65973 7.6674 8.77106 7.6674 8.77106H7.67449C8.59723 8.77106 8.5737 7.97526 8.5737 7.97526C8.5737 7.97526 8.63774 8.2108 8.89531 8.27233C8.92634 8.28033 8.95949 8.2836 8.99118 8.2836C9.07392 8.2836 9.14599 8.26406 9.14599 8.26406C9.14599 8.26406 9.01107 7.97813 9.14499 7.5782C9.25578 7.24626 9.23794 7.00046 9.23794 7.00046C9.23794 7.00046 9.36225 7.1894 9.67034 7.19113H9.67359C9.93023 7.19113 10.0421 6.99546 10.0421 6.99546C9.42676 6.73866 9.48762 5.90992 9.48762 5.90992C9.48762 5.90992 9.56751 5.96983 9.72305 5.97547ZM2.84701 6.26928C2.88889 6.9224 3.20587 7.3758 3.57645 7.81206C3.76878 8.03846 3.83671 8.25826 3.83671 8.25826C3.83671 8.25826 3.79906 8.009 3.63204 7.80646C3.28689 7.38853 2.9582 6.86826 2.93402 6.2669C2.91669 5.84701 3.02401 5.50671 3.19178 5.2262C3.09817 5.51849 3.11101 5.87608 3.42948 6.21024C3.42948 6.21024 2.7959 5.44692 3.6819 4.66443C3.93329 4.45309 4.20143 4.2992 4.40727 4.18106C4.4915 4.13272 4.56529 4.09037 4.62323 4.05252C3.90227 4.28916 3.55002 4.02858 3.55002 4.02858C3.78012 4.22937 4.07827 4.22599 4.26338 4.19704L4.25912 4.19912C4.21029 4.22306 4.15909 4.24816 4.10495 4.27776C3.49655 4.60978 2.95034 5.15651 2.85673 5.91331V5.90742C2.7155 6.65068 2.4009 6.84146 2.4009 6.84146C2.65106 6.7174 2.80875 6.38785 2.84701 6.26928ZM4.02929 7.55853C3.93717 7.6414 3.72465 7.6682 3.72465 7.6682C3.72465 7.6682 4.12265 7.74913 4.1664 8.33973C4.1902 8.65973 4.27086 8.77093 4.27086 8.77093H4.26437C3.34136 8.77093 3.36504 7.97513 3.36504 7.97513C3.36504 7.97513 3.3006 8.2108 3.04346 8.27233C3.01267 8.28033 2.97976 8.2836 2.9476 8.2836C2.86483 8.2836 2.79316 8.26406 2.79316 8.26406C2.79316 8.26406 2.92728 7.97826 2.79354 7.5782C2.68297 7.24633 2.70093 7.0004 2.70093 7.0004C2.70093 7.0004 2.57677 7.1894 2.26839 7.19126H2.26528C2.00876 7.19126 1.8967 6.99546 1.8967 6.99546C2.51158 6.73866 2.45138 5.90993 2.45138 5.90993C2.45138 5.90993 2.37148 5.96984 2.21555 5.97548C2.20981 5.97586 2.2047 5.97586 2.19935 5.97586C1.86018 5.97586 1.74525 5.61074 1.74525 5.61074H1.75211C1.81468 5.61074 2.31826 5.59595 2.67437 5.14072C2.68442 5.1279 2.69438 5.11514 2.70429 5.10246C2.92578 4.81902 3.11764 4.5735 3.48034 4.47429L3.51848 4.46764L3.52658 4.42942C3.53718 4.37126 3.49742 4.31636 3.40742 4.25758C2.88353 3.91264 3.23927 3.4727 3.23927 3.4727C3.23927 3.4727 3.38798 3.82452 3.72365 3.82452C3.72764 3.82452 3.73155 3.82444 3.7355 3.82434H3.73551C3.73959 3.82424 3.74373 3.82415 3.74808 3.82415L3.75783 3.82361C3.79225 3.82172 3.82616 3.81984 3.85977 3.81274L3.92159 3.80058C3.92159 3.80058 3.82574 3.5395 4.05659 3.29998C4.22997 3.11912 4.44112 3.08828 4.56277 3.08828C4.62448 3.08828 4.66299 3.0963 4.66299 3.0963C4.54757 3.24834 4.46393 3.50078 4.59743 3.65644C4.64211 3.70827 4.71172 3.74101 4.78026 3.77324C4.88875 3.82426 4.99456 3.87403 4.99456 3.99624C4.99456 4.08072 4.91603 4.17936 4.77517 4.26785C4.35125 4.5362 3.93057 4.89267 3.75557 5.36984C3.53718 5.96533 3.78348 6.36052 4.13536 6.58714C4.13536 6.58714 4.02492 6.6892 3.86475 6.7022C3.83222 6.70533 3.80081 6.70686 3.77052 6.70686C3.43335 6.70686 3.25872 6.54766 3.25872 6.54766C3.25872 6.54766 3.28776 6.7676 3.46227 6.97193C3.62543 7.16033 3.83796 7.27146 4.16254 7.276C4.16254 7.276 4.17276 7.42753 4.02929 7.55853ZM5.76093 4.73563H5.9787H6.19583V4.88566C6.14485 4.82274 6.04513 4.83566 6.04513 4.83566V5.05186C6.04513 5.05186 6.04899 5.1584 6.08601 5.2044H5.9787H5.87075C5.90839 5.1584 5.91176 5.05186 5.91176 5.05186V4.83566C5.91176 4.83566 5.81241 4.82274 5.76093 4.88566V4.73563ZM5.28691 4.7582C5.30199 4.77449 5.31682 4.79216 5.33128 4.81008L5.33326 4.8125L5.33327 4.81251C5.3359 4.81572 5.33846 4.81883 5.34125 4.82274C5.35446 4.84042 5.3678 4.85922 5.38076 4.87852C5.38242 4.88069 5.38403 4.88311 5.3857 4.88562C5.38692 4.88745 5.38817 4.88932 5.38949 4.89118C5.40494 4.91462 5.41953 4.93894 5.43399 4.964C5.56711 5.195 5.78001 5.33325 5.9691 5.3335C6.15831 5.33325 6.37109 5.195 6.50458 4.964C6.51929 4.9383 6.53425 4.91336 6.5497 4.89005C6.55207 4.88679 6.55444 4.88341 6.55656 4.8799C6.56965 4.85997 6.58348 4.84067 6.59782 4.82186C6.59971 4.81943 6.60151 4.81713 6.60325 4.81492L6.60344 4.81467L6.60655 4.81071C6.62138 4.79216 6.63673 4.77436 6.65231 4.75757C6.65337 4.7565 6.65443 4.75546 6.65536 4.75444L6.65542 4.75443C6.65681 4.75294 6.65821 4.75151 6.6598 4.75017C6.72756 4.68048 6.80837 4.62722 6.91419 4.59776L6.86705 4.57018H6.86459L6.67723 4.46089L6.48476 4.34996L5.97059 4.63148L5.9691 4.63022L5.9681 4.63148L5.4538 4.34996L5.26147 4.46089L5.07376 4.57018H5.07164L5.02414 4.59776C5.1301 4.62722 5.21062 4.67986 5.27868 4.74967C5.27985 4.7508 5.28089 4.75198 5.28194 4.75318C5.28346 4.7549 5.28499 4.75664 5.28691 4.7582ZM5.80525 3.92288V3.78175L5.55234 3.67471C5.55234 3.67471 5.55458 3.75668 5.66839 3.84567C5.73 3.89454 5.7682 3.90709 5.7766 3.90985C5.77761 3.91018 5.7782 3.91038 5.77833 3.91047L5.80525 3.92288ZM5.92466 3.56566V4.44454L5.51507 4.22758L5.36836 3.37615L5.92466 3.56566ZM6.13342 3.78175L6.38632 3.67471C6.38632 3.67471 6.38421 3.75668 6.27003 3.84567C6.20835 3.89478 6.1701 3.90721 6.16186 3.90989C6.16091 3.9102 6.16036 3.91038 6.16021 3.91047L6.13342 3.92288V3.78175ZM6.42347 4.22758L6.56968 3.37615L6.01375 3.56566V4.44454L6.42347 4.22758ZM5.2915 6.50526C5.25797 6.50526 5.19216 6.50126 5.13806 6.48145C5.07836 6.45926 4.98936 6.34909 5.0098 6.22776C5.0356 6.21184 5.09543 6.178 5.1514 6.178C5.19453 6.178 5.22394 6.19831 5.24463 6.24205C5.26258 6.28003 5.29499 6.30522 5.31767 6.31964C5.31693 6.35511 5.31356 6.41013 5.30409 6.45889C5.30197 6.4698 5.29923 6.47982 5.29636 6.48972C5.29525 6.49402 5.29397 6.49784 5.29287 6.50112C5.29236 6.50262 5.29189 6.504 5.2915 6.50526ZM6.06917 6.31915L6.06916 6.31916L6.05796 6.33016C6.05546 6.33264 6.0538 6.33427 6.05312 6.33497L6.04078 6.34725L5.40184 6.3371C5.40146 6.40077 5.39112 6.45492 5.38115 6.49452C5.37952 6.50117 5.37778 6.50806 5.37604 6.51496L6.13613 6.65233C6.21516 6.5968 6.43279 6.437 6.5173 6.37432C6.45586 6.2842 6.45 6.17704 6.46396 6.10158C6.42344 6.07576 6.39278 6.04644 6.36835 6.01535C6.28045 6.11164 6.12066 6.26858 6.0692 6.31912L6.06917 6.31915ZM6.04045 5.45645C6.16659 5.44379 6.30769 5.38939 6.45502 5.24262H7.41593C7.37403 5.35392 7.33942 5.47437 7.33942 5.5942L7.33975 6.36767C7.17898 6.34047 7.15989 6.1665 7.15929 6.15898L7.15644 6.12338L7.1219 6.12037C7.05182 6.11373 7.00574 6.08402 6.96656 6.0458C6.8878 5.96646 6.88767 5.83811 6.8878 5.8371C6.88767 5.8378 6.8866 5.83977 6.88488 5.8429V5.84291V5.84292C6.87056 5.86936 6.81162 5.9783 6.90053 6.09606C6.94216 6.15146 7.00283 6.18555 7.08126 6.19908C7.09969 6.29547 7.17102 6.43184 7.33975 6.45252V6.83133H6.86546C6.64687 6.70873 6.73962 6.49338 6.74373 6.48424L6.7623 6.4435L6.72039 6.42746C6.48357 6.33922 6.54876 6.1017 6.55188 6.0913L6.56147 6.05682L6.52932 6.04154C6.33374 5.95029 6.36017 5.70487 6.36278 5.6946C6.3027 5.7436 6.28102 5.84362 6.3224 5.94164C6.30123 5.96614 6.2731 5.99538 6.24206 6.02764L6.23701 6.03288C6.03447 5.98087 6.02811 5.79374 6.02811 5.78534L6.02761 5.75651L6.00106 5.74611C5.92203 5.71666 5.86769 5.67254 5.84101 5.61325C5.81097 5.5477 5.82157 5.47876 5.8298 5.44567C5.85298 5.45094 5.87591 5.45444 5.8981 5.45645C5.92091 5.45883 5.94409 5.46021 5.96778 5.46021H5.96915H5.97089C5.99445 5.46021 6.01739 5.45883 6.04045 5.45645ZM5.17849 5.59709L5.16553 6.08955L5.22137 6.09808L5.35748 5.62554L5.28843 5.48015L5.17849 5.59709ZM5.44688 7.39046C5.44588 7.40646 5.45747 7.42 5.4733 7.4204C5.48863 7.4218 5.50184 7.40986 5.50334 7.3942C5.50396 7.37913 5.49262 7.36513 5.47666 7.36446C5.46108 7.36313 5.44824 7.37526 5.44688 7.39046ZM6.69288 7.85806C6.68837 7.8568 6.6836 7.85646 6.67949 7.85646C6.65211 7.85646 6.64011 7.8808 6.64011 7.8808C6.65847 7.93033 6.66305 7.96586 6.66729 7.99806C6.67193 8.034 6.67604 8.0658 6.69805 8.10826C6.72431 8.15893 6.76786 8.2018 6.79452 8.228L6.79916 8.2326C6.80221 8.2356 6.80493 8.23833 6.80725 8.24073C6.80725 8.24073 6.80101 8.286 6.79458 8.31993L6.73525 8.62993C6.69746 8.6352 6.65781 8.63793 6.61669 8.6398L6.67889 8.34166C6.68791 8.2986 6.63639 8.26993 6.56767 8.23166C6.49538 8.19146 6.40408 8.14073 6.34421 8.05146C6.28712 8.11606 6.1798 8.13533 6.07186 8.13533C5.97338 8.13533 5.87504 8.1194 5.81508 8.10753C5.8 8.10526 5.78554 8.1034 5.77121 8.1034C5.73668 8.1034 5.70514 8.11413 5.68333 8.15086L5.66625 8.18006L5.34404 8.1036L5.26377 8.23733C5.25255 8.25893 5.2518 8.27706 5.27 8.29726L5.29169 8.3212C5.27673 8.36833 5.20967 8.4398 5.20967 8.4398L5.16181 8.3796C5.12392 8.337 5.13015 8.25893 5.16941 8.18673L5.2973 7.96986L5.57028 8.0094L5.52802 7.9122C5.48817 7.82246 5.51853 7.71566 5.54363 7.62733C5.55449 7.58913 5.56438 7.55433 5.56716 7.52593C5.56405 7.5544 5.53799 7.56093 5.50771 7.56093C5.49299 7.56093 5.4773 7.55933 5.46277 7.55793C5.45022 7.55666 5.43852 7.55553 5.42905 7.55553C5.42095 7.55553 5.41409 7.5564 5.41048 7.559L5.33644 7.60426L5.27823 7.55253C5.27112 7.5426 5.26888 7.51906 5.28596 7.5016L5.42095 7.34933L5.26153 7.16193L5.48489 7.27473L5.5532 7.19166C5.5719 7.20993 5.56367 7.25833 5.56367 7.25833C5.63322 7.26006 5.82892 7.36866 5.83926 7.6226C5.83964 7.63033 5.83964 7.639 5.83964 7.64753L5.84135 7.65013C5.84225 7.65153 5.84349 7.6534 5.845 7.6558C5.85883 7.67486 5.89698 7.72373 5.94521 7.72833L6.25409 7.75906H6.25521C6.26826 7.75906 6.28625 7.75313 6.3084 7.74586C6.34379 7.7342 6.38976 7.71906 6.44306 7.71906C6.49005 7.71906 6.5424 7.73113 6.59837 7.7666C6.59837 7.7666 6.62654 7.74426 6.67206 7.7418C6.67551 7.74153 6.67949 7.74153 6.6826 7.74153C6.79902 7.74153 6.85816 7.8304 6.91823 7.92066C6.9297 7.9378 6.9411 7.955 6.95297 7.97166C7.00873 8.05146 7.08364 8.16966 7.08364 8.16966C7.05593 8.2024 7.03041 8.2208 6.98738 8.2208C6.97564 8.2208 6.96218 8.21993 6.94753 8.2168C6.86214 8.20106 6.81872 8.0928 6.78119 7.99906C6.75341 7.9298 6.72888 7.8684 6.69288 7.85806ZM5.03326 8.1384C5.03326 8.1384 5.14021 8.09413 5.14968 8.0628L5.13535 8.02686C5.12525 8.00353 5.12674 7.9782 5.14619 7.96446L5.26149 7.88433L5.45407 7.9216C5.45407 7.9216 5.41929 7.87773 5.42266 7.81906L5.23868 7.77993L5.06542 7.886C4.991 7.942 4.98565 8.0334 5.0102 8.08766L5.03326 8.1384ZM6.5104 8.64166C6.46865 8.64166 6.43038 8.6422 6.39598 8.64366L6.48647 8.36026C6.49598 8.334 6.46654 8.30246 6.43733 8.27113C6.42324 8.256 6.4092 8.24093 6.39959 8.22653C6.44422 8.25466 6.55951 8.31633 6.61511 8.341C6.6095 8.35013 6.5104 8.64166 6.5104 8.64166Z" fill="white"/>
<path fill-rule="evenodd" clip-rule="evenodd" d="M6.73081 6.83126H4.59919V5.59416C4.59919 5.47434 4.56428 5.35388 4.52303 5.24258H5.48368C5.57505 5.33383 5.66442 5.39074 5.74956 5.42194C5.73859 5.46594 5.72388 5.55681 5.76489 5.64756C5.79842 5.72063 5.859 5.77691 5.94687 5.81451C5.95622 5.90476 6.01331 6.04062 6.17024 6.10066C6.10131 6.17048 6.0345 6.23628 6.00745 6.26272L5.36975 6.25257C5.3553 6.2453 5.33062 6.22888 5.31965 6.20582C5.31898 6.20406 5.31809 6.20275 5.31718 6.2014C5.3164 6.20024 5.3156 6.19905 5.31491 6.19755L5.41899 6.21447C5.42124 6.21472 5.42348 6.21472 5.42572 6.21472C5.44579 6.21472 5.46337 6.2008 5.4666 6.18012C5.46997 6.15681 5.45464 6.1355 5.4322 6.13212L5.30407 6.11182L5.44616 5.61848L5.31154 5.33383L5.09603 5.56295L5.08294 6.07584L4.9381 6.05278C4.91566 6.04839 4.89435 6.06469 4.89036 6.0875C4.887 6.11006 4.90221 6.1315 4.92489 6.1355L4.98572 6.14478C4.96403 6.15719 4.9497 6.16709 4.94795 6.16847L4.93561 6.17712L4.93225 6.19241C4.89697 6.3363 4.97662 6.47292 5.06287 6.53396L5.05963 6.55214C5.05614 6.57419 5.06126 6.59575 5.07447 6.61392C5.08705 6.63235 5.106 6.64338 5.12781 6.64726C5.13217 6.64814 5.13692 6.64852 5.14128 6.64852C5.17842 6.64852 5.21108 6.62258 5.22005 6.58447C5.25221 6.58848 5.28163 6.58911 5.3017 6.58911H5.31853L6.15516 6.74126L6.16949 6.73172C6.23593 6.68499 6.49021 6.49886 6.57347 6.43694C6.59628 6.45688 6.62196 6.47468 6.65297 6.48959C6.62582 6.58058 6.62421 6.72059 6.73081 6.83126ZM4.59922 6.91472H7.33969L7.34022 7.95132C7.34022 8.29486 7.13967 8.53479 6.82343 8.61299L6.8764 8.33559L6.87713 8.33166C6.87978 8.31619 6.88283 8.29886 6.88502 8.28419C6.89993 8.29046 6.91578 8.29572 6.93275 8.29886C6.95257 8.30266 6.97074 8.30452 6.98745 8.30452C7.06827 8.30452 7.11534 8.26179 7.14663 8.22532L7.18727 8.17766L7.15412 8.12552C7.15114 8.12039 7.07748 8.00359 7.02113 7.92359C7.01006 7.90792 6.99945 7.89212 6.98871 7.87532C6.9244 7.77859 6.84385 7.65752 6.68267 7.65752L6.66809 7.65772C6.6417 7.65952 6.61888 7.66466 6.60031 7.67179C6.54971 7.64812 6.49722 7.63559 6.44301 7.63559C6.37632 7.63559 6.3201 7.65399 6.28271 7.66692C6.2794 7.66786 6.27621 7.66886 6.27314 7.66986C6.26626 7.67199 6.26005 7.67392 6.25479 7.67479L5.95339 7.64499C5.94965 7.64432 5.93719 7.63706 5.92223 7.61912V7.61766L5.98742 7.59132C5.9691 7.37286 5.76056 7.23852 5.64414 7.19299C5.63903 7.17106 5.62856 7.14926 5.61037 7.13146L5.54555 7.06966L5.48858 7.13819L5.46054 7.17332L5.03823 6.99886L5.31308 7.34566L5.20476 7.51072C5.165 7.55319 5.20875 7.59559 5.20875 7.59559L5.32081 7.67332L5.43686 7.62966C5.4397 7.62966 5.44225 7.63012 5.44482 7.63052C5.44597 7.63072 5.44713 7.63092 5.44832 7.63106C5.44511 7.64092 5.44143 7.66712 5.43798 7.69166C5.43527 7.71092 5.43271 7.72919 5.43062 7.73772L5.22907 7.69786L5.01742 7.81806C4.9086 7.89852 4.89377 8.03139 4.93415 8.12239L4.95758 8.17406L4.99087 8.24699L5.06515 8.21612C5.06615 8.21599 5.06715 8.21552 5.06765 8.21499C5.0411 8.30052 5.05194 8.38186 5.09931 8.43512L5.14443 8.49192L5.20426 8.56786L5.26995 8.49706C5.28915 8.47772 5.35197 8.40706 5.37129 8.34672L5.38537 8.30052L5.35347 8.26492L5.34798 8.25866L5.38425 8.19872L5.64726 8.26099L5.70634 8.27479L5.73775 8.22252L5.75496 8.19406C5.7582 8.18792 5.75894 8.18706 5.77116 8.18706C5.78038 8.18706 5.78973 8.18792 5.79983 8.19032C5.89917 8.20912 5.99066 8.21852 6.07181 8.21852C6.15071 8.21852 6.19783 8.21552 6.25379 8.19686C6.25379 8.19686 6.39502 8.35812 6.39988 8.36406L6.3135 8.63266L6.30951 8.64872C6.14585 8.66212 6.06607 8.69819 5.96972 8.79499C5.82987 8.65546 5.73052 8.64066 5.35446 8.64066C4.90423 8.64066 4.59922 8.37519 4.59922 7.95132V6.91472Z" fill="#FFDD2D"/>
<path fill-rule="evenodd" clip-rule="evenodd" d="M5.382 2.5781L5.31019 2.57046L5.24189 2.56219C5.2733 2.63338 5.29636 2.70094 5.31294 2.75684C5.4948 2.65544 5.73001 2.59766 5.96908 2.59766C6.2094 2.59766 6.44473 2.65544 6.62597 2.75684C6.64243 2.70094 6.66564 2.63338 6.697 2.56219L6.62846 2.57046L6.55654 2.5781L6.52625 2.5123L6.43464 2.31778L6.26761 2.40514L6.20254 2.43848L6.15057 2.38684L5.96908 2.20635L5.78797 2.38684L5.73624 2.43848L5.67118 2.40514L5.5034 2.31778L5.4129 2.5123L5.382 2.5781ZM6.68964 2.92016C6.54769 2.8061 6.29042 2.69893 5.96908 2.69893C5.64824 2.69893 5.39196 2.8061 5.249 2.92016C5.249 2.92016 5.20699 2.66472 5.0629 2.43948L5.32166 2.46906L5.45691 2.17978L5.71754 2.31464L5.96908 2.06396L6.22149 2.31464L6.4815 2.17978L6.61699 2.46906L6.876 2.43948C6.7318 2.66472 6.68964 2.92016 6.68964 2.92016ZM5.47671 7.36447C5.46113 7.36293 5.44816 7.37526 5.44692 7.39053C5.4458 7.40646 5.45751 7.42 5.47334 7.42033C5.48868 7.4216 5.50189 7.4098 5.50338 7.39413C5.504 7.37913 5.49266 7.36507 5.47671 7.36447ZM6.74705 9.53793L6.62189 9.1916C6.77072 9.14613 7.0269 9.04813 7.14153 8.9828L7.06515 9.23486L7.32451 9.32146C7.16758 9.40066 6.97737 9.47453 6.74705 9.53793ZM5.96973 9.84913C5.66809 9.84913 5.32381 9.77946 5.22235 9.74313L5.37641 9.32386C5.50418 9.36146 5.7703 9.4012 5.96325 9.39993H5.96375H5.96973H5.97497H5.97559C6.16842 9.4012 6.43417 9.36146 6.56268 9.32386L6.71649 9.74313C6.61503 9.77946 6.27076 9.84913 5.96973 9.84913ZM4.61432 9.32146L4.87408 9.23486L4.79718 8.9828C4.91173 9.04813 5.16825 9.14613 5.31683 9.1916L5.19156 9.53793C4.96209 9.47453 4.771 9.40066 4.61432 9.32146ZM7.33611 9.24453L7.17819 9.18373L7.22182 9.01953L7.26981 8.8408C7.26981 8.8408 6.9901 8.99346 6.59584 9.108C6.48403 9.14026 6.3994 9.15493 6.3994 9.15493V9.27673C6.3994 9.27673 6.18849 9.3136 5.9756 9.3136H5.97298H5.96974H5.96562H5.96325C5.74999 9.3136 5.53945 9.27673 5.53945 9.27673V9.15493C5.53945 9.15493 5.45469 9.14026 5.34301 9.108C4.94875 8.99346 4.66941 8.8408 4.66941 8.8408L4.71666 9.01953L4.76103 9.18373L4.60273 9.24453L4.4271 9.3106C4.44589 9.31973 4.46536 9.3292 4.48542 9.33906L4.48597 9.33933L4.48692 9.3398H4.48696C4.68151 9.43493 4.93182 9.55733 5.16265 9.6208L5.10244 9.78626C5.10244 9.78626 5.42628 9.93466 5.96562 9.936V9.93626H5.96724H5.96974H5.97173H5.97298V9.936C6.51307 9.93466 6.83656 9.78626 6.83656 9.78626L6.77609 9.6208C7.0088 9.5568 7.26166 9.43293 7.45651 9.3374L7.45671 9.33733C7.47547 9.32813 7.49377 9.3192 7.51141 9.3106L7.33611 9.24453ZM10.0421 6.99553C10.0421 6.99553 9.93037 7.19133 9.67359 7.19133H9.67048C9.36219 7.18947 9.23808 7.0004 9.23808 7.0004C9.23808 7.0004 9.25578 7.24633 9.1448 7.57813C9.01121 7.97833 9.14606 8.264 9.14606 8.264C9.14606 8.264 9.07393 8.28353 8.99112 8.28353C8.95949 8.28353 8.92641 8.2804 8.89519 8.2724C8.63775 8.21073 8.5737 7.97506 8.5737 7.97506C8.5737 7.97506 8.59724 8.771 7.6745 8.771H7.66727C7.66727 8.771 7.74862 8.65966 7.77256 8.3398C7.81644 7.74933 8.2141 7.66813 8.2141 7.66813C8.2141 7.66813 8.00181 7.64126 7.90993 7.55846C7.76599 7.42746 7.7762 7.27593 7.7762 7.27593C8.10093 7.2714 8.31368 7.16026 8.47572 6.97186C8.65134 6.76766 8.68005 6.5477 8.68005 6.5477C8.68005 6.5477 8.50548 6.70673 8.16796 6.70673C8.13832 6.70673 8.10663 6.7054 8.07401 6.70213C7.9143 6.6892 7.80385 6.58706 7.80385 6.58706C8.15523 6.36057 8.40179 5.96512 8.18314 5.36976C8.00805 4.89272 7.58725 4.53625 7.16341 4.26777C7.02246 4.17928 6.94396 4.08076 6.94396 3.99616C6.94396 3.87396 7.04984 3.82424 7.15837 3.77326C7.22699 3.74104 7.29667 3.70832 7.34142 3.65649C7.47494 3.50069 7.39114 3.24838 7.27565 3.09635C7.27565 3.09635 7.3145 3.08832 7.37596 3.08832C7.49801 3.08832 7.70904 3.11904 7.88241 3.30002C8.11273 3.53955 8.01726 3.80063 8.01726 3.80063L8.07899 3.81266C8.11412 3.82019 8.1492 3.82191 8.18533 3.82368L8.19063 3.82394C8.19474 3.82394 8.19892 3.82407 8.2031 3.8242C8.20727 3.82432 8.21145 3.82444 8.21556 3.82444C8.5501 3.82444 8.69974 3.47262 8.69974 3.47262C8.69974 3.47262 9.05543 3.91256 8.53167 4.2575C8.44157 4.31653 8.40179 4.3713 8.41227 4.42934L8.42036 4.46769L8.45762 4.47433C8.82073 4.57334 9.0124 4.81864 9.23351 5.10168C9.24358 5.1146 9.25379 5.12758 9.264 5.14064C9.62036 5.596 10.1242 5.61066 10.1864 5.61066H10.1932C10.1932 5.61066 10.0782 5.97578 9.7393 5.97578C9.73353 5.97578 9.72869 5.97578 9.72319 5.9754C9.56752 5.96976 9.48763 5.90997 9.48763 5.90997C9.48763 5.90997 9.4269 6.7386 10.0421 6.99553ZM9.7393 6.08758C10.1549 6.08758 10.2939 5.66242 10.2996 5.64425L10.3461 5.49434L10.1903 5.49924H10.1897C10.1348 5.49924 9.67605 5.48708 9.35112 5.07158L9.32049 5.0331L9.31883 5.03104C9.10708 4.76018 8.90573 4.50274 8.54639 4.38522C8.55686 4.37582 8.57172 4.36416 8.59214 4.35074C8.78334 4.22453 8.89452 4.07086 8.92243 3.89263C8.96334 3.62453 8.79309 3.41057 8.78559 3.40192L8.6699 3.25816L8.59764 3.42875L8.59751 3.42896C8.59134 3.44267 8.46975 3.71277 8.21556 3.71277H8.1964L8.1901 3.71241L8.18301 3.71202C8.17035 3.71134 8.15788 3.71066 8.14581 3.70964C8.15477 3.58793 8.13269 3.39929 7.96243 3.22219C7.7579 3.00924 7.5071 2.97715 7.37596 2.97715C7.31417 2.97715 7.27068 2.98398 7.25768 2.98602C7.25596 2.98629 7.25477 2.98648 7.25417 2.98655L7.07941 3.0214L7.18734 3.16428C7.27174 3.27446 7.34851 3.47776 7.25755 3.58379C7.2301 3.61574 7.17527 3.64199 7.12111 3.66792L7.11143 3.67253C6.99395 3.72693 6.83298 3.80301 6.83298 3.99616C6.83298 4.121 6.92951 4.25185 7.10433 4.36303C7.62179 4.69017 7.94109 5.03172 8.07899 5.40861C8.29233 5.98844 8.01388 6.3192 7.74378 6.49343L7.62239 6.57176L7.72847 6.6698L7.72853 6.66986C7.74345 6.683 7.87293 6.79753 8.0644 6.81406C8.1008 6.81633 8.13541 6.81846 8.16796 6.81846C8.29074 6.81846 8.39556 6.799 8.48069 6.7728C8.45728 6.81406 8.42838 6.85626 8.39231 6.89853C8.23777 7.0784 8.04769 7.16026 7.77448 7.16473L7.67284 7.1664L7.66515 7.2688C7.66416 7.28946 7.6564 7.47933 7.83527 7.64093C7.86259 7.666 7.8956 7.68653 7.93041 7.7032C7.80895 7.813 7.68584 8.00426 7.66204 8.33166C7.64181 8.60513 7.57717 8.7062 7.57625 8.70733L7.46394 8.87966L7.66688 8.8824C8.00208 8.8824 8.25859 8.78953 8.43647 8.60513C8.54168 8.49613 8.60175 8.37286 8.63729 8.264C8.6955 8.314 8.77074 8.35786 8.86913 8.3812C8.90639 8.38993 8.94703 8.3946 8.99112 8.3946C9.08321 8.3946 9.16091 8.37546 9.17304 8.37246L9.1739 8.37226L9.30338 8.33766L9.24617 8.2162L9.2459 8.21566C9.23894 8.19926 9.13572 7.95733 9.25015 7.61447C9.30027 7.46393 9.32579 7.3292 9.33826 7.22426C9.41994 7.26693 9.52913 7.30226 9.67034 7.30273C9.98619 7.30273 10.1281 7.06893 10.1381 7.05226L10.1385 7.05166L10.2017 6.94113L10.0846 6.89266C9.7025 6.73306 9.61797 6.30467 9.60106 6.07292C9.63554 6.07956 9.67505 6.0857 9.71961 6.08695L9.7393 6.08758ZM9.52528 4.38398C9.43989 4.29523 9.34966 4.26878 9.27222 4.26878C9.15196 4.26878 9.06186 4.33271 9.06186 4.33271C9.23649 4.42617 9.33607 4.55014 9.41974 4.65428V4.65428C9.49107 4.74301 9.55074 4.81733 9.63547 4.8461C9.66677 4.857 9.69826 4.86177 9.72981 4.86177C9.86566 4.86177 9.9968 4.7734 10.0422 4.67263C10.0422 4.67263 9.79313 4.65734 9.52528 4.38398ZM9.33342 4.7244C9.25432 4.62576 9.16389 4.51445 9.00902 4.43148L8.84984 4.34537L8.99762 4.24071L8.99954 4.23948C9.01883 4.22708 9.12749 4.15724 9.27222 4.15724C9.39554 4.15724 9.5101 4.20825 9.60464 4.30514C9.83476 4.5414 10.0415 4.56045 10.049 4.5607L10.2097 4.57023L10.1433 4.71838C10.0774 4.86616 9.90318 4.97282 9.72981 4.97282C9.6852 4.97282 9.6417 4.96605 9.6008 4.95189C9.48657 4.91388 9.41317 4.82307 9.33633 4.72798L9.33342 4.7244ZM9.08175 5.9075V5.91314C8.98853 5.15634 8.44204 4.60974 7.83375 4.27759C7.77766 4.24726 7.72562 4.22168 7.67536 4.19712C7.86033 4.22594 8.15861 4.22933 8.38873 4.02866C8.38873 4.02866 8.03656 4.28912 7.31523 4.05248C7.37311 4.09025 7.4469 4.13254 7.53103 4.1808C7.73709 4.29896 8.00559 4.45296 8.2572 4.66438C9.14268 5.44688 8.50926 6.21007 8.50926 6.21007C8.82736 5.87604 8.84056 5.51845 8.74694 5.22616C8.91461 5.50679 9.02181 5.84709 9.00497 6.26685C8.98051 6.86833 8.65194 7.3884 8.30593 7.80626C8.13965 8.0092 8.10265 8.2584 8.10265 8.2584C8.10265 8.2584 8.16981 8.0384 8.36215 7.8122C8.73275 7.37573 9.04986 6.9226 9.09123 6.26936C9.12962 6.38793 9.28754 6.71733 9.53795 6.8414C9.53795 6.8414 9.22323 6.65077 9.08175 5.9075ZM3.365 7.97506C3.365 7.97506 3.34144 8.771 4.26433 8.771H4.27094C4.27094 8.771 4.19016 8.65966 4.16648 8.3398C4.12261 7.7492 3.72473 7.66813 3.72473 7.66813C3.72473 7.66813 3.93713 7.64126 4.02924 7.55846C4.17283 7.42746 4.16262 7.27593 4.16262 7.27593C3.83791 7.2714 3.62539 7.16026 3.46222 6.97186C3.28772 6.76766 3.2588 6.5477 3.2588 6.5477C3.2588 6.5477 3.4333 6.70673 3.77048 6.70673C3.80076 6.70673 3.83217 6.7054 3.86483 6.70213C4.02488 6.6892 4.13544 6.58706 4.13544 6.58706C3.78356 6.36057 3.53713 5.96525 3.75552 5.36976C3.93052 4.89272 4.3512 4.53625 4.77525 4.26777C4.9161 4.17928 4.99451 4.08076 4.99451 3.99616C4.99451 3.87397 4.88879 3.82425 4.78033 3.77324C4.71177 3.741 4.64213 3.70825 4.59738 3.65636C4.46401 3.50069 4.54753 3.24826 4.66282 3.09635C4.66282 3.09635 4.62456 3.08832 4.56285 3.08832C4.44095 3.08832 4.23005 3.11904 4.05654 3.30002C3.82557 3.53955 3.92155 3.80063 3.92155 3.80063L3.85985 3.81266C3.82553 3.82001 3.79089 3.82182 3.75593 3.82366L3.74804 3.82407C3.74369 3.82407 3.7396 3.82416 3.73556 3.82426L3.73555 3.82426C3.73159 3.82435 3.72767 3.82444 3.72361 3.82444C3.38806 3.82444 3.23923 3.47274 3.23923 3.47274C3.23923 3.47274 2.88361 3.91256 3.40738 4.2575C3.4975 4.3164 3.53713 4.37118 3.52654 4.42934L3.51856 4.46769L3.48042 4.47433C3.11748 4.57358 2.92562 4.8191 2.70404 5.10264L2.70395 5.10276C2.69414 5.11532 2.68427 5.12794 2.67433 5.14064C2.31834 5.596 1.81476 5.61066 1.75219 5.61066H1.74521C1.74521 5.61066 1.86025 5.97578 2.19942 5.97578C2.20478 5.97578 2.20989 5.97578 2.2155 5.9754C2.37143 5.96976 2.45133 5.90997 2.45133 5.90997C2.45133 5.90997 2.51154 6.7386 1.89678 6.99553C1.89678 6.99553 2.00871 7.1912 2.26536 7.1912H2.26835C2.57685 7.18946 2.70088 7.0004 2.70088 7.0004C2.70088 7.0004 2.68293 7.24633 2.79349 7.57813C2.92723 7.97833 2.79312 8.264 2.79312 8.264C2.79312 8.264 2.86466 8.28353 2.94768 8.28353C2.97972 8.28353 3.01262 8.2804 3.04341 8.27226C3.30068 8.21073 3.365 7.97506 3.365 7.97506ZM4.36212 8.70666L4.36243 8.7072L4.47473 8.87966L4.2718 8.8824C3.93663 8.8824 3.68036 8.7894 3.50199 8.60513C3.39716 8.49613 3.33683 8.37286 3.30155 8.264C3.24372 8.314 3.16768 8.35786 3.06934 8.3812C3.03244 8.38993 2.99168 8.3946 2.94768 8.3946C2.85369 8.3946 2.77404 8.37453 2.76505 8.37226H2.76495L2.63519 8.33766L2.69265 8.2162L2.69304 8.21526C2.70113 8.19606 2.80249 7.95506 2.68854 7.61447C2.63843 7.4638 2.61288 7.3292 2.60042 7.22426C2.51877 7.26693 2.4097 7.30226 2.26935 7.3026C1.95065 7.3026 1.80852 7.0656 1.80035 7.052L1.80018 7.05166L1.73711 6.941L1.85378 6.89266C2.23595 6.73306 2.3207 6.30467 2.33803 6.07292C2.30288 6.07956 2.26337 6.0857 2.21949 6.08695L2.19942 6.08758C1.7836 6.08758 1.64486 5.66242 1.63938 5.64425L1.59177 5.49434L1.74832 5.49924C1.80329 5.49924 2.26275 5.48708 2.58745 5.07158L2.61811 5.0331L2.6203 5.0303C2.83189 4.75972 3.03293 4.50263 3.39242 4.38522C3.38195 4.37582 3.36761 4.36416 3.3468 4.35074C3.15559 4.22453 3.04428 4.07086 3.01661 3.89263C2.97601 3.6296 3.13938 3.41868 3.1518 3.40264L3.15235 3.40192L3.26927 3.25816L3.34131 3.42875C3.34593 3.43953 3.46709 3.71277 3.72361 3.71277H3.74243C3.74671 3.71252 3.75093 3.71229 3.75513 3.71206L3.75523 3.71205H3.75524C3.768 3.71135 3.78043 3.71067 3.79279 3.70964C3.78406 3.5878 3.80638 3.39942 3.97677 3.22206C4.18131 3.00924 4.4316 2.97715 4.56286 2.97715C4.62511 2.97715 4.6683 2.98403 4.68092 2.98604L4.68213 2.98623C4.68313 2.98639 4.68383 2.9865 4.68427 2.98655L4.85989 3.0214L4.75145 3.16428C4.66682 3.27433 4.59003 3.47776 4.68115 3.58379C4.70827 3.6154 4.76225 3.64132 4.81587 3.66707L4.82724 3.67253C4.9449 3.72693 5.10532 3.80301 5.10532 3.99616C5.10532 4.121 5.00959 4.25185 4.83472 4.36303C4.31656 4.69017 3.99771 5.03172 3.85985 5.40861C3.64683 5.98844 3.92417 6.31908 4.19528 6.49343L4.31656 6.57176L4.21023 6.6698C4.1959 6.6826 4.06601 6.79753 3.87406 6.81406C3.83791 6.81633 3.80351 6.81846 3.77048 6.81846C3.64733 6.81846 3.54312 6.799 3.45811 6.7728C3.48179 6.81406 3.51071 6.85613 3.54649 6.89853C3.70092 7.07826 3.89151 7.16026 4.16386 7.16473L4.26619 7.1664L4.27305 7.2688C4.2743 7.28946 4.28203 7.47933 4.10329 7.64093C4.07586 7.666 4.04333 7.68653 4.00806 7.7032C4.12971 7.813 4.25286 8.00426 4.27704 8.33166C4.29696 8.59486 4.35729 8.69833 4.36212 8.70666ZM2.41325 4.38384C2.49888 4.29522 2.589 4.26865 2.66678 4.26865C2.78644 4.26865 2.87706 4.33257 2.87706 4.33257C2.7029 4.42598 2.60322 4.5497 2.51943 4.65371C2.44771 4.74272 2.38762 4.8173 2.30244 4.84609C2.27202 4.857 2.24036 4.86176 2.20882 4.86176C2.07309 4.86176 1.94158 4.77339 1.89671 4.67262C1.89671 4.67262 2.14576 4.65733 2.41325 4.38384ZM2.20882 4.97281C2.25345 4.97281 2.29682 4.96616 2.33796 4.952C2.4526 4.91382 2.52604 4.8228 2.60288 4.72757L2.60545 4.72438L2.60768 4.72162C2.68677 4.62379 2.7758 4.51366 2.92953 4.43146L3.08908 4.34536L2.94088 4.2407L2.93888 4.23942C2.91942 4.22689 2.81122 4.15722 2.66677 4.15722C2.54325 4.15722 2.42858 4.20811 2.33397 4.30512C2.10387 4.54151 1.89758 4.56056 1.8901 4.56069L1.72955 4.57022L1.79549 4.71837C1.86168 4.86614 2.03581 4.97281 2.20882 4.97281ZM3.19176 5.22618C3.02398 5.50682 2.91679 5.84699 2.93411 6.26688C2.95817 6.8684 3.28674 7.38853 3.632 7.80633C3.79904 8.009 3.83656 8.2584 3.83656 8.2584C3.83656 8.2584 3.76875 8.0384 3.57654 7.81206C3.20597 7.37573 2.88899 6.9224 2.84711 6.26938C2.80871 6.38796 2.65103 6.71733 2.40099 6.84146C2.40099 6.84146 2.71548 6.65079 2.85671 5.9074V5.9133C2.95031 5.15637 3.49664 4.60976 4.10504 4.27761C4.15506 4.25044 4.20248 4.227 4.24765 4.20466L4.26334 4.19689C4.07849 4.22597 3.78022 4.22936 3.54999 4.02868C3.54999 4.02868 3.90224 4.28914 4.62332 4.0525C4.56552 4.09022 4.49193 4.13245 4.40794 4.18064H4.40793L4.40793 4.18065C4.20197 4.29882 3.9335 4.45287 3.68187 4.66441C2.796 5.4469 3.42971 6.21022 3.42971 6.21022C3.11086 5.87607 3.09814 5.51835 3.19176 5.22618ZM5.76094 4.73562V4.88566C5.81242 4.82274 5.91177 4.83565 5.91177 4.83565V5.05186C5.91177 5.05186 5.9084 5.1584 5.87075 5.2044H5.9787H6.08602C6.049 5.1584 6.04514 5.05186 6.04514 5.05186V4.83565C6.04514 4.83565 6.14485 4.82274 6.19583 4.88566V4.73562H5.9787H5.76094ZM5.77673 3.90998C5.7685 3.90729 5.73025 3.89474 5.66843 3.84552C5.5545 3.75665 5.55226 3.6748 5.55226 3.6748L5.80529 3.78172V3.92298L5.77837 3.91056C5.77829 3.91052 5.77809 3.91044 5.77776 3.91032C5.77749 3.91024 5.77715 3.91012 5.77673 3.90998ZM6.27 3.84552C6.3843 3.75665 6.38654 3.6748 6.38654 3.6748L6.13339 3.78172V3.92298L6.16019 3.91056C6.16033 3.91048 6.16088 3.9103 6.16182 3.90999L6.16182 3.90998C6.17004 3.90729 6.20829 3.89475 6.27 3.84552ZM5.35969 3.2271L5.96909 3.46913L6.57862 3.2271C6.52713 3.10364 6.28819 2.99886 5.96909 2.99848C5.65049 2.99886 5.41167 3.10364 5.35969 3.2271ZM6.01383 4.44452L6.42355 4.22769L6.56964 3.376L6.01383 3.56577V4.44452ZM6.86453 4.57012L6.67724 4.46082L6.48475 4.3499L5.97059 4.63141L5.96909 4.63028L5.96809 4.63141L5.45392 4.3499L5.26147 4.46082L5.07375 4.57012H5.07175L5.02426 4.59782C5.13009 4.62714 5.21048 4.67979 5.27879 4.74973C5.27988 4.75077 5.28087 4.75192 5.28187 4.75307C5.28339 4.75483 5.28493 4.75661 5.28689 4.75812C5.30197 4.77442 5.31693 4.79222 5.33126 4.81002C5.33189 4.81079 5.33252 4.81155 5.33314 4.8123C5.33585 4.8156 5.3385 4.81882 5.34124 4.8228C5.35445 4.84035 5.36779 4.85928 5.38075 4.87845C5.38237 4.88058 5.38395 4.88298 5.38559 4.88547C5.38684 4.88738 5.38812 4.88933 5.38947 4.89124C5.40494 4.91455 5.41952 4.93899 5.43397 4.96406C5.5671 5.19506 5.78 5.33318 5.96909 5.33344C6.15842 5.33318 6.3712 5.19506 6.50457 4.96406C6.51928 4.93836 6.53423 4.9133 6.5497 4.89011C6.55016 4.88943 6.55064 4.88874 6.55111 4.88805C6.55296 4.8854 6.55487 4.88264 6.55655 4.87996C6.56964 4.86002 6.58347 4.8406 6.59781 4.82192C6.6008 4.81791 6.60391 4.81415 6.60653 4.81064C6.62136 4.79222 6.63667 4.7743 6.65225 4.7575C6.65351 4.75636 6.6547 4.75518 6.65576 4.75405C6.65715 4.7527 6.65841 4.75139 6.65974 4.75023C6.72769 4.68042 6.80831 4.62714 6.91419 4.59782L6.86705 4.57012H6.86453ZM7.33936 5.59414C7.33936 5.47432 7.37397 5.35386 7.41587 5.24256H6.45496C6.30788 5.38934 6.16665 5.44386 6.04039 5.45639C6.01757 5.45878 5.99439 5.46028 5.97096 5.46028H5.96909H5.96772C5.94428 5.46028 5.92085 5.45878 5.89816 5.45639C5.8761 5.45451 5.85291 5.451 5.82973 5.44562C5.8215 5.4787 5.81091 5.54752 5.84095 5.61319C5.86787 5.67248 5.92197 5.71672 6.00112 5.74605L6.02779 5.75646L6.02817 5.78528C6.02817 5.79393 6.0344 5.98094 6.23695 6.03283L6.23818 6.03156C6.27073 5.99784 6.3003 5.96721 6.32234 5.94171C6.28096 5.84357 6.30264 5.74354 6.36285 5.69454C6.36023 5.70494 6.3338 5.95023 6.52925 6.04135L6.56154 6.0569L6.55194 6.09149C6.54882 6.10177 6.48363 6.33916 6.72033 6.42752L6.76223 6.44332L6.74374 6.4843C6.73956 6.49358 6.64681 6.70893 6.8654 6.83113H7.33969V6.45272C7.17116 6.43191 7.09963 6.29567 7.0812 6.19903C7.0029 6.18562 6.94223 6.1514 6.90047 6.096C6.81163 5.97814 6.87057 5.86928 6.88482 5.84286C6.88654 5.83972 6.8876 5.83774 6.88774 5.83705C6.8876 5.83818 6.88774 5.96665 6.96663 6.04586C7.00555 6.08397 7.05202 6.11368 7.12184 6.12032L7.15638 6.12358L7.15949 6.15893C7.16009 6.16657 7.17892 6.34041 7.33969 6.36761L7.33936 5.59414ZM6.8764 8.3356L6.82343 8.61293C7.13967 8.53473 7.34022 8.29486 7.34022 7.95126L7.33969 6.91473H4.59909V7.95126C4.59909 8.37533 4.90423 8.64066 5.35446 8.64066C5.73064 8.64066 5.82974 8.65546 5.96971 8.79493C6.06607 8.6982 6.14571 8.66206 6.3095 8.64866L6.31337 8.63253L6.39987 8.36426C6.39501 8.358 6.25379 8.1968 6.25379 8.1968C6.19769 8.21547 6.15058 8.2186 6.0718 8.2186C5.99065 8.2186 5.89904 8.20913 5.79982 8.19033C5.78985 8.18807 5.7805 8.1872 5.77115 8.1872C5.75894 8.1872 5.75831 8.18807 5.75494 8.19407L5.73787 8.22253L5.70646 8.2748L5.64713 8.261L5.38424 8.19873L5.34822 8.2586L5.35358 8.265L5.38537 8.30046L5.37116 8.3466C5.35196 8.407 5.28914 8.47773 5.26995 8.497L5.20426 8.56806L5.14442 8.49186L5.09943 8.43506C5.05219 8.3818 5.04122 8.30046 5.06789 8.21486C5.06727 8.21546 5.06614 8.21586 5.06515 8.21613L4.99098 8.24693L4.9577 8.17413L4.93414 8.12246C4.89376 8.0314 4.90859 7.89853 5.01741 7.81807L5.22906 7.698L5.43061 7.7378C5.43279 7.72906 5.43541 7.71033 5.43816 7.69073C5.44156 7.66646 5.44515 7.64086 5.44831 7.63106C5.44703 7.63086 5.44577 7.63066 5.44451 7.6304C5.44198 7.63 5.43946 7.62953 5.43673 7.62953L5.3208 7.67313L5.20875 7.59566C5.20875 7.59566 5.16511 7.55306 5.20463 7.51073L5.31295 7.34566L5.03835 6.9988L5.46053 7.17326L5.4887 7.1382L5.54567 7.06966L5.61035 7.13146C5.62868 7.14926 5.63915 7.17106 5.64426 7.193C5.76043 7.23833 5.96909 7.37286 5.98754 7.5914L5.92222 7.61773V7.61913C5.9373 7.63706 5.94952 7.64433 5.95338 7.64506L6.25491 7.67493C6.25991 7.67393 6.26572 7.67213 6.2722 7.67013C6.27557 7.66906 6.27912 7.66793 6.28282 7.66686C6.3201 7.6542 6.37631 7.63553 6.44312 7.63553C6.49735 7.63553 6.5497 7.64793 6.6003 7.6718C6.61888 7.66473 6.6417 7.65946 6.66822 7.65786L6.68268 7.65746C6.84391 7.65746 6.9242 7.77826 6.98844 7.87493L6.98871 7.87533C6.99945 7.89226 7.00999 7.9078 7.02113 7.9236C7.07755 8.00353 7.15101 8.12027 7.15412 8.12553L7.18727 8.17766L7.14663 8.22526C7.11534 8.26173 7.06814 8.30446 6.98732 8.30446C6.97074 8.30446 6.95271 8.3026 6.93275 8.29886C6.91565 8.2956 6.89994 8.29046 6.88502 8.2842C6.88283 8.29886 6.87978 8.31613 6.87706 8.3316L6.8764 8.3356ZM5.14966 8.06273L5.13545 8.02686C5.12523 8.00353 5.1266 7.9782 5.14617 7.96447L5.26147 7.88446L5.45405 7.9216C5.45405 7.9216 5.41927 7.87773 5.42264 7.81907L5.23878 7.77993L5.06539 7.886C4.99098 7.942 4.98562 8.0334 5.0103 8.08766L5.03324 8.1384C5.03324 8.1384 5.14031 8.0942 5.14966 8.06273ZM6.73532 8.63L6.79452 8.31993C6.80109 8.28607 6.80732 8.24066 6.80732 8.24066C6.80407 8.23733 6.80009 8.23346 6.79558 8.22906C6.769 8.203 6.72471 8.15953 6.69806 8.10846C6.67598 8.06586 6.67187 8.034 6.66723 7.998C6.66305 7.96573 6.65841 7.9302 6.64018 7.88073C6.64018 7.88073 6.65205 7.8564 6.67943 7.8564C6.68367 7.8564 6.68844 7.85693 6.69289 7.85813C6.72889 7.8684 6.75342 7.92973 6.78113 7.99893C6.81872 8.09266 6.86208 8.201 6.94754 8.21686C6.96226 8.21973 6.97558 8.22073 6.98732 8.22073C7.03048 8.22073 7.056 8.20246 7.08358 8.1696C7.08358 8.1696 7.0088 8.05153 6.95304 7.97186C6.94124 7.95526 6.9299 7.93813 6.9185 7.92106C6.85837 7.83053 6.7991 7.74147 6.68268 7.74147C6.67943 7.74147 6.67545 7.74146 6.67207 7.74193C6.62648 7.74406 6.59843 7.76653 6.59843 7.76653C6.54246 7.7312 6.49011 7.71913 6.44312 7.71913C6.38979 7.71913 6.34374 7.73433 6.30833 7.74593C6.28622 7.7532 6.26827 7.75913 6.25528 7.75913H6.25403L5.94541 7.72833C5.89704 7.7238 5.85877 7.67493 5.84506 7.6556C5.8417 7.65046 5.83983 7.64733 5.83983 7.64733C5.83983 7.63906 5.83983 7.63026 5.83933 7.62266C5.82886 7.36873 5.63329 7.26007 5.56361 7.25827C5.56361 7.25827 5.57183 7.21013 5.55301 7.1916L5.48483 7.27466L5.26147 7.16186L5.42101 7.34926L5.28602 7.50167C5.26894 7.51913 5.27107 7.5424 5.27817 7.55233L5.3365 7.6042L5.41054 7.5592C5.41416 7.55633 5.42101 7.5556 5.42899 7.5556C5.43845 7.5556 5.45013 7.55673 5.46267 7.55793C5.47723 7.55933 5.49297 7.56086 5.50777 7.56086C5.53794 7.56086 5.56398 7.55446 5.5671 7.526C5.56432 7.5544 5.55446 7.58913 5.54361 7.62733C5.51854 7.71566 5.48823 7.8224 5.52808 7.9122L5.57047 8.00946L5.29737 7.96973L5.1696 8.1868C5.13009 8.259 5.12398 8.33706 5.16175 8.37966L5.20961 8.43986C5.20961 8.43986 5.27667 8.3684 5.29163 8.32126L5.26995 8.29733C5.25162 8.27706 5.25261 8.259 5.26383 8.23733L5.34385 8.1038L5.6662 8.18L5.6834 8.15093C5.70521 8.11433 5.73662 8.10346 5.77115 8.10346C5.78548 8.10346 5.80007 8.10506 5.81515 8.1076C5.87498 8.11946 5.97332 8.13526 6.0718 8.13526C6.17974 8.13526 6.28719 8.11586 6.34428 8.05153C6.40405 8.14067 6.49528 8.1914 6.56754 8.2316C6.63633 8.26986 6.68798 8.29853 6.67883 8.34173L6.61663 8.63966C6.65775 8.638 6.69753 8.63526 6.73532 8.63ZM6.39601 8.64366C6.43029 8.64226 6.4688 8.6418 6.51031 8.6418C6.51031 8.6418 6.60953 8.35013 6.61514 8.34086C6.55955 8.31626 6.44425 8.25473 6.39962 8.22653C6.40924 8.241 6.42336 8.2562 6.43753 8.27133C6.4667 8.3026 6.49603 8.33406 6.48637 8.3604L6.39601 8.64366ZM5.17845 5.59715L5.16561 6.08948L5.22133 6.09813L5.35745 5.62548L5.28839 5.48021L5.17845 5.59715ZM5.31756 6.31961C5.295 6.30519 5.26259 6.28 5.24451 6.24202C5.22407 6.19828 5.19453 6.17798 5.15153 6.17798C5.09543 6.17798 5.03561 6.21182 5.0098 6.22773C4.98936 6.34919 5.07836 6.45924 5.13806 6.48142C5.19216 6.50122 5.25785 6.50536 5.29151 6.50536C5.29196 6.50388 5.29249 6.50226 5.29308 6.5005C5.29413 6.49734 5.29533 6.49376 5.29637 6.48982C5.29924 6.47992 5.30198 6.46977 5.30422 6.45899C5.31357 6.41011 5.31694 6.35508 5.31756 6.31961ZM6.13611 6.65226C6.21514 6.59673 6.4329 6.43692 6.51729 6.37438C6.45584 6.28414 6.44998 6.17697 6.46381 6.10177C6.42355 6.07582 6.39289 6.04636 6.36833 6.01528C6.27504 6.11758 6.1008 6.28809 6.06098 6.32705C6.05675 6.33119 6.05404 6.33384 6.0531 6.33477L6.04076 6.34731L5.40195 6.33703C5.40145 6.40083 5.39122 6.45485 5.38125 6.49459C5.38029 6.49854 5.37923 6.50259 5.37817 6.50668C5.37745 6.50944 5.37672 6.51222 5.37602 6.51501L6.13611 6.65226ZM5.74946 5.4218C5.66457 5.39072 5.57508 5.33381 5.48359 5.24256H4.52293C4.56419 5.35386 4.59909 5.47432 4.59909 5.59414V6.83113H6.73081C6.62424 6.7206 6.62598 6.58056 6.65278 6.48982C6.62187 6.47478 6.59632 6.45686 6.5735 6.43705C6.49011 6.49884 6.23608 6.68486 6.16939 6.73173L6.15519 6.74113L5.31868 6.58934H5.3016C5.28153 6.58934 5.25224 6.58846 5.22008 6.58458C5.21111 6.62255 5.17845 6.64837 5.14118 6.64837C5.13694 6.64837 5.1322 6.64813 5.12784 6.64724C5.10603 6.64349 5.08709 6.63233 5.07437 6.6139C5.06128 6.59586 5.05617 6.5743 5.05979 6.55224L5.06278 6.53394C4.97665 6.4729 4.897 6.3364 4.93227 6.19239L4.93564 6.1771L4.94798 6.16845C4.9496 6.16707 4.96406 6.15717 4.98562 6.14488L4.92492 6.13548C4.90211 6.13147 4.88677 6.11004 4.89039 6.0876C4.89425 6.06479 4.91569 6.04825 4.93813 6.05264L5.08297 6.07582L5.09618 5.56306L5.3117 5.33381L5.44619 5.61846L5.30422 6.11167L5.43211 6.13198C5.45467 6.13561 5.47 6.15679 5.46663 6.1801C5.46327 6.20078 5.44582 6.2147 5.42563 6.2147C5.42339 6.2147 5.42126 6.2147 5.41902 6.21445L5.31506 6.19765C5.3157 6.19912 5.31649 6.20028 5.31726 6.20144C5.31814 6.20276 5.31901 6.20406 5.31968 6.2058C5.33065 6.22898 5.35532 6.24528 5.36978 6.25255L6.00736 6.2627L6.00995 6.26015C6.03851 6.2321 6.10357 6.16819 6.17027 6.10052C6.01322 6.04072 5.95625 5.90486 5.94665 5.81449C5.85903 5.77688 5.79845 5.72061 5.76479 5.64754C5.72391 5.55692 5.73837 5.46604 5.74946 5.4218ZM5.92471 3.56577L5.36841 3.376L5.515 4.22769L5.92471 4.44452V3.56577ZM5.97046 2.86262C6.36659 2.86262 6.72557 3.05551 6.72557 3.26997L6.71781 3.32274L6.55954 4.23596L6.71781 4.32871L7.12966 4.57012H7.1282C7.1282 4.57012 7.22082 4.61787 7.26305 4.64732C7.42051 4.7565 7.4534 4.91618 7.36237 4.98211C7.33969 4.852 7.23759 4.71614 7.04626 4.71614C6.90829 4.71614 6.80334 4.78733 6.71781 4.895C6.69653 4.92207 6.67585 4.95102 6.65629 4.98211C6.63236 5.02146 6.60865 5.05593 6.58497 5.08903H7.64433C7.56617 5.24645 7.49238 5.41302 7.49238 5.59414V7.95126C7.49238 8.52193 7.05667 8.79406 6.58435 8.79406C6.55684 8.79406 6.53113 8.794 6.50702 8.79386C6.21098 8.7928 6.15493 8.7926 5.96971 8.97906C5.78368 8.7926 5.72758 8.7928 5.43173 8.79386C5.40763 8.794 5.38194 8.79406 5.35446 8.79406C4.88254 8.79406 4.44615 8.52193 4.44615 7.95126V5.59414C4.44615 5.41302 4.37223 5.24645 4.29433 5.08903H5.35358C5.32977 5.05593 5.30584 5.02146 5.28203 4.98211C5.26284 4.95102 5.24202 4.92207 5.22008 4.895C5.13545 4.7877 5.03024 4.71614 4.89238 4.71614C4.7008 4.71614 4.59859 4.852 4.57615 4.98211C4.48529 4.91618 4.51857 4.7565 4.67512 4.64732C4.71801 4.61787 4.81049 4.57012 4.81049 4.57012H4.809L5.22008 4.32871L5.37913 4.23596L5.22083 3.32274L5.21298 3.26997C5.21298 3.05551 5.57196 2.86262 5.96809 2.86262H5.96909H5.97009H5.97046Z" fill="#231F20"/>
</g>
</g>
<defs>
<clipPath id="clip0_16_176">
<rect width="12" height="12" fill="white"/>
</clipPath>
</defs>
</svg>
