<svg width="12" height="12" viewBox="0 0 12 12" fill="none" xmlns="http://www.w3.org/2000/svg">
<g clip-path="url(#clip0_16_189)">
<path d="M0 5.76C0 3.0447 0 1.68707 0.843533 0.843533C1.68707 0 3.0447 0 5.76 0H6.24C8.9553 0 10.3129 0 11.1565 0.843533C12 1.68707 12 3.0447 12 5.76V6.24C12 8.9553 12 10.3129 11.1565 11.1565C10.3129 12 8.9553 12 6.24 12H5.76C3.0447 12 1.68707 12 0.843533 11.1565C0 10.3129 0 8.9553 0 6.24V5.76Z" fill="#0077FF"/>
<path d="M6.385 8.64502C3.65 8.64502 2.09002 6.77002 2.02502 3.65002H3.39502C3.44002 5.94002 4.45 6.91002 5.25 7.11002V3.65002H6.54005V5.62502C7.33005 5.54002 8.15995 4.64002 8.43995 3.65002H9.72997C9.51497 4.87002 8.61497 5.77002 7.97497 6.14002C8.61497 6.44002 9.64002 7.22502 10.03 8.64502H8.60997C8.30497 7.69502 7.54505 6.96002 6.54005 6.86002V8.64502H6.385Z" fill="white"/>
</g>
<defs>
<clipPath id="clip0_16_189">
<rect width="12" height="12" fill="white"/>
</clipPath>
</defs>
</svg>
