<svg width="14" height="10" viewBox="0 0 14 10" fill="none" xmlns="http://www.w3.org/2000/svg">
<path d="M7.31016 9.9869L4.4379 9.93266C3.50793 9.91375 2.57564 9.95148 1.6639 9.75566C0.27694 9.46308 0.178682 8.02852 0.075866 6.82519C-0.0658041 5.13346 -0.0109594 3.41102 0.25639 1.73341C0.407318 0.792095 1.00128 0.230406 1.91982 0.169284C5.02058 -0.0525388 8.14195 -0.0262506 11.2358 0.0772376C11.5626 0.0867246 11.8916 0.138577 12.2138 0.1976C13.8042 0.485469 13.843 2.11115 13.9461 3.47967C14.0489 4.86232 14.0055 6.25206 13.809 7.62528C13.6513 8.76228 13.3497 9.71576 12.0767 9.8078C10.4817 9.92817 8.92331 10.0251 7.32384 9.99421C7.32391 9.9869 7.31472 9.9869 7.31016 9.9869ZM5.62155 7.10835C6.8235 6.39574 8.00252 5.695 9.1976 4.98717C7.9934 4.27456 6.81663 3.57382 5.62155 2.86599V7.10835Z" fill="white"/>
</svg>
