<svg width="50" height="50" viewBox="0 0 50 50" fill="none" xmlns="http://www.w3.org/2000/svg">
<rect width="50" height="50" fill="#5865F2"/>
<g clip-path="url(#clip0_32_176)">
<rect width="50" height="50" rx="25" fill="#5865F2"/>
<path d="M37.6376 43.9938C37.6376 38.6984 32.943 34.3658 27.2067 34.3658H23.0358C17.2995 34.3658 12.6049 38.6984 12.6049 43.9938V48.8078C12.6047 49.4588 12.6941 50.1067 12.8706 50.7334H37.3719C37.5484 50.1067 37.6378 49.4588 37.6376 48.8078V43.9938Z" fill="#AABFF2"/>
<path d="M40.8226 25.7217C40.3739 24.3372 39.1338 24.3334 37.9188 24.3931C37.7597 23.4545 37.4706 22.5426 37.06 21.6838C35.6389 18.8339 32.8622 18.3082 29.9352 18.1638C25.256 17.9327 20.3689 17.8056 16.1403 19.7928C14.155 20.7248 13.5677 22.273 13.1344 23.4457C13.0554 23.6613 12.9938 23.8943 12.9264 24.1196C12.8698 24.1077 12.8126 24.0987 12.7551 24.0927C9.62018 23.8905 8.84994 26.413 8.89038 29.0954C8.90963 30.3971 8.99243 32.1378 9.56819 33.3317C10.1767 34.591 11.5304 34.4871 12.73 34.4274C12.8353 34.4204 12.9398 34.4036 13.042 34.3773C14.0394 37.2137 16.508 38.3132 19.381 38.6887C23.7887 39.2664 28.7471 39.4224 33.1394 38.7099C35.8757 38.267 37.0985 36.6341 37.6453 34.4235C38.0039 34.4127 38.3597 34.3571 38.7044 34.2579C40.2449 33.8112 41.0999 33.2662 41.2635 31.5813C41.4407 29.7655 41.3887 27.4663 40.8226 25.7217Z" fill="#AABFF2"/>
<path d="M40.3335 21.4123H37.3681C36.3282 20.2743 34.6722 18.287 33.3127 16.9545C34.6299 17.1355 38.9162 17.7248 38.6775 17.0701C38.5619 16.7581 33.2627 13.6617 30.9751 13.0263C29.0803 12.5045 26.3748 11.6784 24.5782 12.7298C22.6372 13.8755 20.856 15.2869 19.1654 16.6503C17.3919 18.0848 15.4663 19.6061 14.1299 21.3237C14.1299 21.3353 14.1184 21.3449 14.1107 21.3545H10.0804C8.9751 21.3545 9.09256 22.7121 10.1882 22.7159C11.981 22.7255 32.9758 22.7968 40.4375 22.8199C41.5736 22.8122 41.4561 21.4161 40.3335 21.4123Z" fill="#7D94DF"/>
<path d="M27.5186 18.6606C28.0963 18.1907 28.8666 17.3281 28.2889 16.708C28.0405 16.4365 27.638 16.4134 27.2953 16.4558C26.8285 16.5226 26.3698 16.6368 25.9262 16.7966C25.8453 16.138 25.6104 15.2311 24.9229 15.2677C24.4935 15.2889 24.2259 15.751 24.0545 16.0918C23.959 16.276 23.8828 16.4696 23.8273 16.6695C23.8022 16.76 23.7907 16.8621 23.7637 16.9429C23.704 17.1548 23.7772 17.0931 23.5596 17.0931C23.1148 17.0931 22.7027 17.0257 22.2887 17.2414C22.2178 17.2696 22.1533 17.3118 22.0991 17.3655C22.0449 17.4193 22.0021 17.4834 21.9733 17.5541C21.9445 17.6248 21.9303 17.7006 21.9316 17.7769C21.9329 17.8532 21.9495 17.9285 21.9806 17.9982C22.2444 18.5758 22.9434 18.934 23.5943 19.1805C23.24 19.8275 22.901 20.721 23.5326 21.1061C24.2663 21.5605 25.1925 20.6016 25.6989 19.943C25.9746 20.2623 26.2996 20.5354 26.6617 20.7518C27.0276 20.9655 27.5648 21.2698 27.9962 21.0888C28.4834 20.8846 28.3235 20.3185 28.2003 19.9334C28.0496 19.4724 27.8188 19.0415 27.5186 18.6606Z" fill="#FFC239"/>
<path d="M30.5591 25.6736C29.4038 24.784 27.7959 24.7455 26.4133 24.6608C24.4741 24.5453 22.528 24.6473 20.6115 24.965C20.4338 24.995 20.2614 25.0501 20.0993 25.1287C19.7656 25.1815 19.4558 25.3345 19.211 25.5673C18.9662 25.8001 18.7978 26.1017 18.7282 26.4323C18.0581 29.1532 18.6011 32.6193 21.5146 33.7496C24.039 34.7336 27.8845 34.7239 29.9757 32.9389C31.8608 31.3349 32.8236 27.4336 30.5591 25.6736Z" fill="#CBDAF7"/>
<path d="M23.1379 30.0525C22.5237 30.0525 21.9075 30.0525 21.2932 30.0679C21.1106 30.0794 20.9401 30.1629 20.8191 30.3001C20.6981 30.4373 20.6366 30.617 20.6481 30.7996C20.6596 30.9822 20.7432 31.1527 20.8804 31.2737C21.0176 31.3946 21.1973 31.4562 21.3799 31.4447C21.9941 31.4581 22.6103 31.4562 23.2265 31.4601C24.1335 31.4639 24.043 30.0486 23.1379 30.0525ZM28.1618 30.3817C27.4801 30.3413 26.7966 30.3028 26.113 30.272C25.3312 30.2373 25.233 31.5949 26.0205 31.6507C26.7638 31.7033 27.5071 31.7495 28.2504 31.7893C28.6355 31.8086 28.932 31.3907 28.9089 31.0422C28.8839 30.6224 28.5431 30.4048 28.1618 30.3817Z" fill="#AABFF2"/>
<path d="M15.6858 27.5145C13.9797 27.5145 14.1568 30.1564 15.8514 30.1564C17.5459 30.1564 17.3842 27.5145 15.6858 27.5145ZM34.4007 27.6377C32.5887 27.6377 32.7774 30.4433 34.5778 30.4433C36.3783 30.4433 36.2011 27.6377 34.4007 27.6377Z" fill="black"/>
<path d="M12.3661 27.3566C12.3661 26.8078 11.7017 26.6152 11.3128 26.8463C11.2218 26.8164 11.1254 26.8061 11.0301 26.8161C10.9349 26.8262 10.8428 26.8563 10.76 26.9045C10.6772 26.9527 10.6056 27.018 10.5498 27.0959C10.4941 27.1738 10.4555 27.2627 10.4366 27.3566C10.1787 28.4848 10.1226 29.6498 10.271 30.7976C10.3808 31.6102 10.5522 32.5307 11.4899 32.704C11.5951 32.7232 11.7032 32.7185 11.8063 32.6901C11.9094 32.6617 12.0047 32.6105 12.0852 32.5402C12.1657 32.4698 12.2294 32.3822 12.2713 32.2839C12.3133 32.1856 12.3325 32.079 12.3276 31.9723C12.2833 30.4298 12.343 28.8971 12.3661 27.3566ZM39.1781 27.2642C39.1549 27.1439 39.0941 27.0342 39.0044 26.9508C38.9148 26.8674 38.801 26.8146 38.6794 26.8001C38.5728 26.7522 38.4559 26.7319 38.3394 26.7411C38.2229 26.7504 38.1107 26.7888 38.013 26.8529C37.9153 26.917 37.8353 27.0047 37.7805 27.1079C37.7257 27.2111 37.6977 27.3264 37.6993 27.4432C37.7185 28.8836 37.8071 30.3316 37.9034 31.7624C37.917 31.9165 37.9791 32.0623 38.0809 32.1789C38.1826 32.2955 38.3186 32.3769 38.4695 32.4113C40.6743 33.0063 39.415 28.1827 39.1781 27.2642Z" fill="#7D94DF"/>
</g>
<defs>
<clipPath id="clip0_32_176">
<rect width="50" height="50" rx="25" fill="white"/>
</clipPath>
</defs>
</svg>
