<svg width="1100" height="550" viewBox="0 0 1100 550" fill="none" xmlns="http://www.w3.org/2000/svg">
<g clip-path="url(#clip0_17_54)">
<path d="M648.567 16.372C619.875 78.096 625.301 116.794 664.842 132.466C724.155 155.974 865.189 165.377 924.141 216.372C983.091 267.366 1162.84 227.944 1193.58 140.422C1224.32 52.9 1279.67 -82 987.808 -82C793.232 -82 680.154 -49.21 648.568 16.372H648.567Z" fill="#FFFA72"/>
<path d="M170.788 138.242C90.4501 311.069 105.643 419.423 216.358 463.305C382.434 529.127 777.329 555.456 942.395 698.242C1107.45 841.025 1610.75 730.643 1696.82 485.582C1782.9 240.52 1937.87 -137.2 1120.66 -137.2C575.85 -137.2 259.231 -45.388 170.79 138.242H170.788Z" fill="#C7E1F3"/>
<path d="M210.603 128.086C134.569 291.654 148.948 394.204 253.731 435.735C410.911 498.031 784.651 522.949 940.874 658.086C1097.09 793.22 1573.42 688.752 1654.88 456.818C1736.35 224.885 1883.02 -132.6 1109.59 -132.6C593.965 -132.6 294.308 -45.7065 210.605 128.086H210.603Z" fill="#B8CFE6"/>
<path d="M250.418 117.93C178.688 272.24 192.252 368.985 291.105 408.165C439.387 466.935 791.972 490.443 939.352 617.93C1086.73 745.415 1536.09 646.86 1612.95 428.055C1689.8 209.25 1828.17 -128 1098.52 -128C612.08 -128 329.385 -46.025 250.42 117.93H250.418Z" fill="#A9BEDA"/>
<path d="M290.233 107.774C222.806 252.826 235.557 343.766 328.479 380.595C467.864 435.839 799.294 457.936 937.831 577.774C1076.36 697.61 1498.77 604.968 1571.01 399.292C1643.25 193.615 1773.32 -123.4 1087.45 -123.4C630.195 -123.4 364.462 -46.3435 290.235 107.774H290.233Z" fill="#9AADCE"/>
<path d="M330.047 97.6184C266.925 233.411 278.862 318.547 365.852 353.025C496.341 404.743 806.616 425.429 936.31 537.618C1066 649.805 1461.44 563.077 1529.07 370.528C1596.7 177.98 1718.47 -118.8 1076.38 -118.8C648.31 -118.8 399.539 -46.662 330.05 97.6184H330.047Z" fill="#8B9BC1"/>
<path d="M369.862 87.4626C311.044 213.997 322.167 293.328 403.226 325.455C524.818 373.647 813.937 392.923 934.789 497.463C1055.64 602 1424.12 521.185 1487.14 341.765C1550.16 162.345 1663.62 -114.2 1065.31 -114.2C666.426 -114.2 434.616 -46.9805 369.864 87.4626H369.862Z" fill="#7D8AB5"/>
<path d="M409.677 77.3068C355.163 194.582 365.472 268.109 440.6 297.885C553.294 342.551 821.259 360.416 933.268 457.307C1045.27 554.195 1386.79 479.294 1445.2 313.002C1503.61 146.71 1608.77 -109.6 1054.24 -109.6C684.541 -109.6 469.693 -47.299 409.679 77.3068H409.677Z" fill="#6E79A9"/>
<path d="M449.492 67.151C399.281 175.168 408.777 242.889 477.973 270.315C581.771 311.454 828.581 327.91 931.747 417.151C1034.91 506.391 1349.47 437.402 1403.26 284.238C1457.06 131.075 1553.92 -105 1043.16 -105C702.656 -105 504.77 -47.6175 449.494 67.151H449.492Z" fill="#5F679C"/>
<path d="M489.307 56.9952C443.4 155.754 452.082 217.67 515.347 242.746C610.248 280.358 835.902 295.403 930.226 376.995C1024.55 458.586 1312.14 395.51 1361.33 255.475C1410.51 115.44 1499.07 -100.4 1032.09 -100.4C720.771 -100.4 539.846 -47.936 489.309 56.9952H489.307Z" fill="#505690"/>
<path d="M529.122 46.8394C487.519 136.339 495.386 192.451 552.721 215.176C638.725 249.262 843.224 262.897 928.704 336.839C1014.18 410.781 1274.82 353.619 1319.39 226.712C1363.96 99.805 1444.22 -95.8 1021.02 -95.8C738.886 -95.8 574.923 -48.2545 529.124 46.8394H529.122Z" fill="#414584"/>
<path d="M568.937 36.6836C531.638 116.925 538.691 167.232 590.095 187.606C667.201 218.166 850.546 230.39 927.183 296.684C1003.82 362.976 1237.49 311.727 1277.45 197.949C1317.42 84.17 1389.37 -91.2 1009.95 -91.2C757.002 -91.2 610 -48.573 568.938 36.6836H568.937Z" fill="#323377"/>
<path d="M608.752 26.5278C575.756 97.5104 581.996 142.013 627.468 160.036C695.678 187.07 857.867 197.884 925.662 256.528C993.455 315.171 1200.16 269.836 1235.52 169.185C1270.87 68.535 1334.52 -86.6 998.879 -86.6C775.117 -86.6 645.077 -48.8915 608.753 26.5278H608.752Z" fill="#23226B"/>
</g>
<defs>
<clipPath id="clip0_17_54">
<rect width="1100" height="550" fill="white"/>
</clipPath>
</defs>
</svg>
