<svg width="394" height="40" viewBox="0 0 394 40" fill="none" xmlns="http://www.w3.org/2000/svg">
<g clip-path="url(#clip0_17_99)">
<path d="M351.567 7.372C322.875 69.096 328.301 107.794 367.842 123.466C427.155 146.974 568.189 156.377 627.141 207.372C686.091 258.366 865.838 218.944 896.579 131.422C927.32 43.9 982.669 -91 690.808 -91C496.232 -91 383.154 -58.21 351.568 7.372H351.567Z" fill="#FFFA72" fill-opacity="0.15"/>
<path d="M-126.212 129.242C-206.55 302.069 -191.357 410.423 -80.6424 454.305C85.434 520.127 480.329 546.456 645.395 689.242C810.455 832.025 1313.75 721.643 1399.82 476.582C1485.9 231.52 1640.87 -146.2 823.662 -146.2C278.85 -146.2 -37.7688 -54.388 -126.21 129.242H-126.212Z" fill="#C7E1F3" fill-opacity="0.5"/>
<path d="M-86.3974 119.086C-162.431 282.654 -148.052 385.204 -43.2687 426.735C113.911 489.031 487.651 513.949 643.874 649.086C800.091 784.22 1276.42 679.752 1357.88 447.818C1439.35 215.885 1586.02 -141.6 812.591 -141.6C296.965 -141.6 -2.69188 -54.7065 -86.3948 119.086H-86.3974Z" fill="#B8CFE6" fill-opacity="0.15"/>
<path d="M-46.5824 108.93C-118.312 263.24 -104.748 359.985 -5.89502 399.165C142.387 457.935 494.972 481.443 642.352 608.93C789.727 736.415 1239.09 637.86 1315.95 419.055C1392.8 200.25 1531.17 -137 801.52 -137C315.08 -137 32.385 -55.025 -46.58 108.93H-46.5824Z" fill="#A9BEDA" fill-opacity="0.15"/>
<path d="M-6.76749 98.7742C-74.1937 243.826 -61.4427 334.766 31.4787 371.595C170.864 426.839 502.294 448.936 640.831 568.774C779.364 688.61 1201.77 595.968 1274.01 390.292C1346.25 184.615 1476.32 -132.4 790.449 -132.4C333.195 -132.4 67.4619 -55.3435 -6.7652 98.7742H-6.76749Z" fill="#9AADCE" fill-opacity="0.15"/>
<path d="M33.0475 88.6184C-30.0749 224.411 -18.1378 309.547 68.8524 344.025C199.341 395.743 509.616 416.429 639.31 528.618C769 640.805 1164.44 554.077 1232.07 361.528C1299.7 168.98 1421.47 -127.8 779.378 -127.8C351.31 -127.8 102.539 -55.662 33.0496 88.6184H33.0475Z" fill="#8B9BC1" fill-opacity="0.15"/>
<path d="M72.8624 78.4626C14.0438 204.997 25.167 284.328 106.226 316.455C227.818 364.647 516.937 383.923 637.789 488.463C758.636 593 1127.12 512.185 1190.14 332.765C1253.16 153.345 1366.62 -123.2 768.306 -123.2C369.426 -123.2 137.616 -55.9805 72.8644 78.4626H72.8624Z" fill="#7D8AB5" fill-opacity="0.15"/>
<path d="M112.677 68.3068C58.1626 185.582 68.4719 259.109 143.6 288.885C256.295 333.551 524.259 351.416 636.268 448.307C748.273 545.195 1089.79 470.294 1148.2 304.002C1206.61 137.71 1311.77 -118.6 757.235 -118.6C387.541 -118.6 172.693 -56.299 112.679 68.3068H112.677Z" fill="#6E79A9" fill-opacity="0.15"/>
<path d="M152.492 58.151C102.281 166.168 111.777 233.889 180.973 261.315C284.771 302.454 531.581 318.91 634.747 408.151C737.909 497.391 1052.47 428.402 1106.26 275.238C1160.06 122.075 1256.92 -114 746.164 -114C405.656 -114 207.769 -56.6175 152.494 58.151H152.492Z" fill="#5F679C" fill-opacity="0.15"/>
<path d="M192.307 47.9952C146.4 146.754 155.082 208.67 218.347 233.746C313.248 271.358 538.902 286.403 633.226 367.995C727.546 449.586 1015.14 386.51 1064.33 246.475C1113.51 106.44 1202.07 -109.4 735.093 -109.4C423.771 -109.4 242.846 -56.936 192.309 47.9952H192.307Z" fill="#505690" fill-opacity="0.15"/>
<path d="M232.122 37.8394C190.519 127.339 198.386 183.451 255.721 206.176C341.725 240.262 546.224 253.897 631.704 327.839C717.182 401.781 977.815 344.619 1022.39 217.712C1066.96 90.805 1147.22 -104.8 724.022 -104.8C441.886 -104.8 277.923 -57.2545 232.124 37.8394H232.122Z" fill="#414584" fill-opacity="0.15"/>
<path d="M271.937 27.6836C234.638 107.925 241.691 158.232 293.095 178.606C370.201 209.166 553.546 221.39 630.183 287.684C706.818 353.976 940.489 302.727 980.453 188.949C1020.42 75.17 1092.37 -100.2 712.95 -100.2C460.002 -100.2 313 -57.573 271.938 27.6836H271.937Z" fill="#323377" fill-opacity="0.15"/>
<path d="M311.752 17.5278C278.756 88.5104 284.996 133.013 330.468 151.036C398.678 178.07 560.867 188.884 628.662 247.528C696.455 306.171 903.164 260.836 938.516 160.185C973.868 59.535 1037.52 -95.6 701.879 -95.6C478.117 -95.6 348.077 -57.8915 311.753 17.5278H311.752Z" fill="#23226B" fill-opacity="0.15"/>
</g>
<defs>
<clipPath id="clip0_17_99">
<rect width="394" height="40" fill="white"/>
</clipPath>
</defs>
</svg>
